<svg version="1.1" viewBox="0.0 0.0 960.0 540.0" fill="none" stroke="none" stroke-linecap="square" stroke-miterlimit="10" xmlns:xlink="http://www.w3.org/1999/xlink" xmlns="http://www.w3.org/2000/svg"><clipPath id="p.0"><path d="m0 0l960.0 0l0 540.0l-960.0 0l0 -540.0z" clip-rule="nonzero"/></clipPath><g clip-path="url(#p.0)"><path fill="#2a3990" d="m0 0l960.0 0l0 540.0l-960.0 0z" fill-rule="evenodd"/><path fill="#212d74" d="m853.41766 0.0016543308l106.58264 0l0 106.58267l-106.58264 0z" fill-rule="evenodd"/><path fill="#3949ab" d="m853.40295 106.58319l0 -106.58268l-106.58264 106.58268z" fill-rule="evenodd"/><path fill="#7890cd" d="m746.83344 0.011226509l0 106.58268l106.58264 -106.58268z" fill-rule="evenodd"/><path fill="#212d74" d="m746.83234 0.010170604l0 106.58268l-106.58264 -106.58268z" fill-rule="evenodd"/><path fill="#7890cd" d="m959.99884 106.60107l0 106.58268l-106.58264 -106.58268z" fill-rule="evenodd"/><path fill="#000000" fill-opacity="0.0" d="m62.792652 186.37505l863.2126 0l0 88.06297l-863.2126 0z" fill-rule="evenodd"/><path fill="#ffffff" d="m98.91765 233.59178l-17.25 0l0 14.109375l20.046875 0l0 4.296875l-25.296875 0l0 -39.8125l25.015625 0l0 4.3125l-19.765625 0l0 12.796875l17.25 0l0 4.296875zm39.921875 18.40625l-5.28125 0l-20.03125 -30.6875l0 30.6875l-5.28125 0l0 -39.8125l5.28125 0l20.09375 30.8125l0 -30.8125l5.21875 0l0 39.8125zm9.328125 0l0 -39.8125l11.234375 0q5.203125 0 9.1875 2.296875q4.0 2.296875 6.171875 6.53125q2.171875 4.234375 2.203125 9.734375l0 2.546875q0 5.625 -2.1875 9.875q-2.171875 4.234375 -6.203125 6.5q-4.03125 2.265625 -9.390625 2.328125l-11.015625 0zm5.25 -35.5l0 31.203125l5.515625 0q6.078125 0 9.453125 -3.765625q3.375 -3.78125 3.375 -10.75l0 -2.328125q0 -6.78125 -3.1875 -10.53125q-3.1875 -3.765625 -9.03125 -3.828125l-6.125 0zm75.96094 16.875q0 5.859375 -1.96875 10.21875q-1.96875 4.359375 -5.578125 6.65625q-3.609375 2.296875 -8.421875 2.296875q-4.703125 0 -8.34375 -2.3125q-3.640625 -2.3125 -5.65625 -6.59375q-2.0 -4.28125 -2.046875 -9.90625l0 -2.875q0 -5.734375 1.984375 -10.140625q2.0 -4.40625 5.640625 -6.734375q3.65625 -2.34375 8.359375 -2.34375q4.796875 0 8.4375 2.3125q3.65625 2.3125 5.625 6.703125q1.96875 4.375 1.96875 10.203125l0 2.515625zm-5.21875 -2.5625q0 -7.09375 -2.84375 -10.875q-2.84375 -3.78125 -7.96875 -3.78125q-4.96875 0 -7.828125 3.78125q-2.859375 3.78125 -2.9375 10.515625l0 2.921875q0 6.859375 2.875 10.796875q2.890625 3.921875 7.953125 3.921875q5.078125 0 7.859375 -3.703125q2.796875 -3.71875 2.890625 -10.625l0 -2.953125zm35.04689 3.609375l-16.70314 0l0 17.578125l-5.25 0l0 -39.8125l24.656265 0l0 4.3125l-19.406265 0l0 13.625l16.70314 0l0 4.296875zm49.26953 -17.921875l-12.796875 0l0 35.5l-5.21875 0l0 -35.5l-12.765625 0l0 -4.3125l30.78125 0l0 4.3125zm36.507812 35.5l-5.28125 0l0 -18.40625l-20.0625 0l0 18.40625l-5.25 0l0 -39.8125l5.25 0l0 17.109375l20.0625 0l0 -17.109375l5.28125 0l0 39.8125zm31.828125 -18.40625l-17.25 0l0 14.109375l20.046875 0l0 4.296875l-25.296875 0l0 -39.8125l25.015625 0l0 4.3125l-19.765625 0l0 12.796875l17.25 0l0 4.296875zm35.33203 -1.421875l10.390625 -19.984375l5.953125 0l-13.71875 24.96875l0 14.84375l-5.25 0l0 -14.84375l-13.734375 -24.96875l6.015625 0l10.34375 19.984375zm43.992188 1.421875l-17.25 0l0 14.109375l20.046875 0l0 4.296875l-25.296875 0l0 -39.8125l25.015625 0l0 4.3125l-19.765625 0l0 12.796875l17.25 0l0 4.296875zm31.3125 8.015625l-16.6875 0l-3.734375 10.390625l-5.421875 0l15.203125 -39.8125l4.59375 0l15.234375 39.8125l-5.390625 0l-3.796875 -10.390625zm-15.09375 -4.328125l13.53125 0l-6.78125 -18.609375l-6.75 18.609375zm44.234375 -1.390625l-9.34375 0l0 16.109375l-5.28125 0l0 -39.8125l13.1875 0q6.71875 0 10.34375 3.0625q3.625 3.0625 3.625 8.90625q0 3.71875 -2.015625 6.484375q-2.0 2.765625 -5.59375 4.125l9.359375 16.90625l0 0.328125l-5.640625 0l-8.640625 -16.109375zm-9.34375 -4.296875l8.0625 0q3.90625 0 6.21875 -2.015625q2.3125 -2.03125 2.3125 -5.421875q0 -3.6875 -2.203125 -5.65625q-2.203125 -1.96875 -6.359375 -2.0l-8.03125 0l0 15.09375zm42.109375 4.25q0 -6.1875 1.65625 -11.875q1.65625 -5.6875 4.9375 -10.328125q3.28125 -4.65625 6.796875 -6.5625l1.046875 3.328125q-4.0 3.0625 -6.5625 9.359375q-2.546875 6.28125 -2.796875 14.078125l-0.015625 2.328125q0 10.546875 3.84375 18.3125q2.328125 4.6562653 5.53125 7.2812653l-1.046875 3.09375q-3.625 -2.03125 -6.9375 -6.78125q-6.453125 -9.312515 -6.453125 -22.23439zm44.890625 16.15625l-26.078125 0l0 -3.640625l13.78125 -15.3125q3.0625 -3.46875 4.21875 -5.640625q1.171875 -2.171875 1.171875 -4.5q0 -3.125 -1.890625 -5.109375q-1.890625 -2.0 -5.03125 -2.0q-3.78125 0 -5.875 2.15625q-2.078125 2.140625 -2.078125 5.96875l-5.0625 0q0 -5.5 3.53125 -8.890625q3.546875 -3.390625 9.484375 -3.390625q5.546875 0 8.765625 2.921875q3.234375 2.90625 3.234375 7.734375q0 5.890625 -7.484375 14.0l-10.671875 11.578125l19.984375 0l0 4.125zm30.335938 -16.984375q0 8.890625 -3.046875 13.21875q-3.03125 4.3125 -9.484375 4.3125q-6.375 0 -9.4375 -4.21875q-3.0625 -4.234375 -3.171875 -12.625l0 -6.75q0 -8.78125 3.03125 -13.046875q3.046875 -4.265625 9.53125 -4.265625q6.421875 0 9.453125 4.125q3.03125 4.109375 3.125 12.6875l0 6.5625zm-5.0625 -6.921875q0 -6.421875 -1.8125 -9.359375q-1.796875 -2.9375 -5.703125 -2.9375q-3.890625 0 -5.671875 2.921875q-1.765625 2.921875 -1.828125 9.0l0 8.09375q0 6.453125 1.875 9.53125q1.875 3.078125 5.671875 3.078125q3.75 0 5.5625 -2.890625q1.828125 -2.90625 1.90625 -9.140625l0 -8.296875zm37.617188 23.90625l-26.078125 0l0 -3.640625l13.78125 -15.3125q3.0625 -3.46875 4.21875 -5.640625q1.171875 -2.171875 1.171875 -4.5q0 -3.125 -1.890625 -5.109375q-1.890625 -2.0 -5.03125 -2.0q-3.78125 0 -5.875 2.15625q-2.078125 2.140625 -2.078125 5.96875l-5.0625 0q0 -5.5 3.53125 -8.890625q3.546875 -3.390625 9.484375 -3.390625q5.546875 0 8.765625 2.921875q3.234375 2.90625 3.234375 7.734375q0 5.890625 -7.484375 14.0l-10.671875 11.578125l19.984375 0l0 4.125zm30.335938 -16.984375q0 8.890625 -3.046875 13.21875q-3.03125 4.3125 -9.484375 4.3125q-6.375 0 -9.4375 -4.21875q-3.0625 -4.234375 -3.171875 -12.625l0 -6.75q0 -8.78125 3.03125 -13.046875q3.046875 -4.265625 9.53125 -4.265625q6.421875 0 9.453125 4.125q3.03125 4.109375 3.125 12.6875l0 6.5625zm-5.0625 -6.921875q0 -6.421875 -1.8125 -9.359375q-1.796875 -2.9375 -5.703125 -2.9375q-3.890625 0 -5.671875 2.921875q-1.765625 2.921875 -1.828125 9.0l0 8.09375q0 6.453125 1.875 9.53125q1.875 3.078125 5.671875 3.078125q3.75 0 5.5625 -2.890625q1.828125 -2.90625 1.90625 -9.140625l0 -8.296875zm22.585938 9.0625l-13.34375 0l0 -4.140625l13.34375 0l0 4.140625zm30.480469 14.84375l-26.078125 0l0 -3.640625l13.78125 -15.3125q3.0625 -3.46875 4.21875 -5.640625q1.171875 -2.171875 1.171875 -4.5q0 -3.125 -1.890625 -5.109375q-1.890625 -2.0 -5.03125 -2.0q-3.78125 0 -5.875 2.15625q-2.078125 2.140625 -2.078125 5.96875l-5.0625 0q0 -5.5 3.53125 -8.890625q3.546875 -3.390625 9.484375 -3.390625q5.546875 0 8.765625 2.921875q3.234375 2.90625 3.234375 7.734375q0 5.890625 -7.484375 14.0l-10.671875 11.578125l19.984375 0l0 4.125zm30.335938 -16.984375q0 8.890625 -3.046875 13.21875q-3.03125 4.3125 -9.484375 4.3125q-6.375 0 -9.4375 -4.21875q-3.0625 -4.234375 -3.171875 -12.625l0 -6.75q0 -8.78125 3.03125 -13.046875q3.046875 -4.265625 9.53125 -4.265625q6.421875 0 9.453125 4.125q3.03125 4.109375 3.125 12.6875l0 6.5625zm-5.0625 -6.921875q0 -6.421875 -1.8125 -9.359375q-1.796875 -2.9375 -5.703125 -2.9375q-3.890625 0 -5.671875 2.921875q-1.765625 2.921875 -1.828125 9.0l0 8.09375q0 6.453125 1.875 9.53125q1.875 3.078125 5.671875 3.078125q3.75 0 5.5625 -2.890625q1.828125 -2.90625 1.90625 -9.140625l0 -8.296875zm37.617188 23.90625l-26.078125 0l0 -3.640625l13.78125 -15.3125q3.0625 -3.46875 4.21875 -5.640625q1.171875 -2.171875 1.171875 -4.5q0 -3.125 -1.890625 -5.109375q-1.890625 -2.0 -5.03125 -2.0q-3.78125 0 -5.875 2.15625q-2.078125 2.140625 -2.078125 5.96875l-5.0625 0q0 -5.5 3.53125 -8.890625q3.546875 -3.390625 9.484375 -3.390625q5.546875 0 8.765625 2.921875q3.234375 2.90625 3.234375 7.734375q0 5.890625 -7.484375 14.0l-10.671875 11.578125l19.984375 0l0 4.125zm21.992188 0l-5.09375 0l0 -33.71875l-10.1875 3.75l0 -4.59375l14.484375 -5.4375l0.796875 0l0 40.0zm27.007812 -15.890625q0 6.09375 -1.59375 11.6875q-1.59375 5.59375 -4.890625 10.32814q-3.296875 4.734375 -6.90625 6.734375l-1.0625 -3.09375q4.203125 -3.234375 6.75 -10.031265q2.5625 -6.796875 2.625 -15.078125l0 -0.875q0 -5.734375 -1.203125 -10.671875q-1.203125 -4.9375 -3.359375 -8.84375q-2.140625 -3.921875 -4.8125 -6.109375l1.0625 -3.078125q3.609375 1.984375 6.875 6.671875q3.265625 4.671875 4.890625 10.3125q1.625 5.625 1.625 12.046875z" fill-rule="nonzero"/><path fill="#000000" fill-opacity="0.0" d="m62.79141 285.13522l863.21265 0l0 45.448822l-863.21265 0z" fill-rule="evenodd"/><path fill="#ffffff" d="m86.88516 295.62015l0 12.515625q-0.015625 2.609375 -1.640625 4.265625q-1.625 1.65625 -4.40625 1.859375l-0.640625 0.015625q-3.015625 0 -4.8125 -1.625q-1.796875 -1.640625 -1.828125 -4.484375l0 -12.546875l2.40625 0l0 12.46875q0 2.0 1.09375 3.109375q1.109375 1.09375 3.140625 1.09375q2.0625 0 3.15625 -1.09375q1.09375 -1.109375 1.09375 -3.09375l0 -12.484375l2.4375 0zm7.804077 12.609375l0.34375 2.421875l0.53125 -2.1875l3.640625 -12.84375l2.046875 0l3.546875 12.84375l0.5 2.21875l0.390625 -2.46875l2.859375 -12.59375l2.453125 0l-4.46875 18.40625l-2.21875 0l-3.78125 -13.40625l-0.296875 -1.40625l-0.296875 1.40625l-3.921875 13.40625l-2.21875 0l-4.453125 -18.40625l2.4375 0l2.90625 12.609375zm25.411057 5.796875l0 -18.40625l5.1875 0q2.40625 0 4.25 1.0625q1.84375 1.0625 2.84375 3.03125q1.015625 1.953125 1.03125 4.484375l0 1.1875q0 2.59375 -1.015625 4.5625q-1.0 1.953125 -2.875 3.0q-1.859375 1.046875 -4.328125 1.078125l-5.09375 0zm2.421875 -16.40625l0 14.421875l2.5625 0q2.796875 0 4.359375 -1.734375q1.5625 -1.75 1.5625 -4.984375l0 -1.0625q0 -3.140625 -1.484375 -4.875q-1.46875 -1.75 -4.171875 -1.765625l-2.828125 0zm24.446884 11.609375l-7.703125 0l-1.734375 4.796875l-2.5 0l7.03125 -18.40625l2.109375 0l7.046875 18.40625l-2.484375 0l-1.765625 -4.796875zm-6.96875 -2.0l6.25 0l-3.140625 -8.609375l-3.109375 8.609375zm24.789444 -9.609375l-5.921875 0l0 16.40625l-2.421875 0l0 -16.40625l-5.890625 0l0 -2.0l14.234375 0l0 2.0zm11.886841 11.609375l-7.703125 0l-1.734375 4.796875l-2.5 0l7.03125 -18.40625l2.109375 0l7.046875 18.40625l-2.484375 0l-1.765625 -4.796875zm-6.96875 -2.0l6.25 0l-3.140625 -8.609375l-3.109375 8.609375zm25.533417 -1.40625q-3.125 -0.90625 -4.546875 -2.203125q-1.421875 -1.3125 -1.421875 -3.234375q0 -2.171875 1.734375 -3.59375q1.734375 -1.421875 4.515625 -1.421875q1.90625 0 3.390625 0.734375q1.484375 0.734375 2.296875 2.03125q0.8125 1.28125 0.8125 2.8125l-2.4375 0q0 -1.671875 -1.0625 -2.625q-1.0625 -0.953125 -3.0 -0.953125q-1.78125 0 -2.796875 0.796875q-1.0 0.78125 -1.0 2.1875q0 1.125 0.953125 1.90625q0.953125 0.765625 3.25 1.421875q2.296875 0.640625 3.59375 1.421875q1.296875 0.765625 1.921875 1.8125q0.625 1.03125 0.625 2.4375q0 2.234375 -1.75 3.578125q-1.75 1.34375 -4.65625 1.34375q-1.90625 0 -3.546875 -0.71875q-1.640625 -0.734375 -2.53125 -2.0q-0.890625 -1.265625 -0.890625 -2.859375l2.4375 0q0 1.65625 1.234375 2.625q1.234375 0.96875 3.296875 0.96875q1.921875 0 2.9375 -0.78125q1.03125 -0.78125 1.03125 -2.125q0 -1.359375 -0.953125 -2.09375q-0.953125 -0.75 -3.4375 -1.46875zm23.4693 2.359375q-0.34375 2.921875 -2.15625 4.515625q-1.8125 1.578125 -4.8125 1.578125q-3.265625 0 -5.234375 -2.328125q-1.96875 -2.34375 -1.96875 -6.265625l0 -1.765625q0 -2.578125 0.921875 -4.515625q0.921875 -1.953125 2.59375 -2.984375q1.6875 -1.046875 3.890625 -1.046875q2.9375 0 4.703125 1.640625q1.78125 1.625 2.0625 4.53125l-2.4375 0q-0.3125 -2.203125 -1.375 -3.1875q-1.046875 -0.984375 -2.953125 -0.984375q-2.3125 0 -3.640625 1.71875q-1.328125 1.71875 -1.328125 4.890625l0 1.78125q0 3.0 1.25 4.765625q1.265625 1.765625 3.515625 1.765625q2.015625 0 3.09375 -0.90625q1.078125 -0.921875 1.4375 -3.203125l2.4375 0zm5.9141693 5.84375l-2.421875 0l0 -18.40625l2.421875 0l0 18.40625zm14.85405 -8.515625l-7.984375 0l0 6.53125l9.265625 0l0 1.984375l-11.6875 0l0 -18.40625l11.5625 0l0 2.0l-9.140625 0l0 5.90625l7.984375 0l0 1.984375zm18.44954 8.515625l-2.4374847 0l-9.265625 -14.1875l0 14.1875l-2.4375 0l0 -18.40625l2.4375 0l9.296875 14.25l0 -14.25l2.4062347 0l0 18.40625zm17.847809 -5.84375q-0.34375 2.921875 -2.15625 4.515625q-1.8125 1.578125 -4.8125 1.578125q-3.265625 0 -5.234375 -2.328125q-1.96875 -2.34375 -1.96875 -6.265625l0 -1.765625q0 -2.578125 0.921875 -4.515625q0.921875 -1.953125 2.59375 -2.984375q1.6875 -1.046875 3.890625 -1.046875q2.9375 0 4.703125 1.640625q1.78125 1.625 2.0625 4.53125l-2.4375 0q-0.3125 -2.203125 -1.375 -3.1875q-1.046875 -0.984375 -2.953125 -0.984375q-2.3125 0 -3.640625 1.71875q-1.328125 1.71875 -1.328125 4.890625l0 1.78125q0 3.0 1.25 4.765625q1.265625 1.765625 3.515625 1.765625q2.015625 0 3.09375 -0.90625q1.078125 -0.921875 1.4375 -3.203125l2.4375 0zm13.726685 -2.671875l-7.984375 0l0 6.53125l9.265625 0l0 1.984375l-11.6875 0l0 -18.40625l11.5625 0l0 2.0l-9.140625 0l0 5.90625l7.984375 0l0 1.984375zm24.249634 2.671875q-0.34375 2.921875 -2.15625 4.515625q-1.8125 1.578125 -4.8125 1.578125q-3.265625 0 -5.234375 -2.328125q-1.96875 -2.34375 -1.96875 -6.265625l0 -1.765625q0 -2.578125 0.921875 -4.515625q0.921875 -1.953125 2.59375 -2.984375q1.6875 -1.046875 3.890625 -1.046875q2.9375 0 4.703125 1.640625q1.78125 1.625 2.0625 4.53125l-2.4375 0q-0.3125 -2.203125 -1.375 -3.1875q-1.046875 -0.984375 -2.953125 -0.984375q-2.3125 0 -3.640625 1.71875q-1.328125 1.71875 -1.328125 4.890625l0 1.78125q0 3.0 1.25 4.765625q1.265625 1.765625 3.515625 1.765625q2.015625 0 3.09375 -0.90625q1.078125 -0.921875 1.4375 -3.203125l2.4375 0zm5.757904 3.859375l8.71875 0l0 1.984375l-11.15625 0l0 -18.40625l2.4375 0l0 16.421875zm23.7641 -16.421875l0 12.515625q-0.015625 2.609375 -1.640625 4.265625q-1.625 1.65625 -4.40625 1.859375l-0.640625 0.015625q-3.015625 0 -4.8125 -1.625q-1.796875 -1.640625 -1.828125 -4.484375l0 -12.546875l2.40625 0l0 12.46875q0 2.0 1.09375 3.109375q1.109375 1.09375 3.140625 1.09375q2.0625 0 3.15625 -1.09375q1.09375 -1.109375 1.09375 -3.09375l0 -12.484375l2.4375 0zm3.8353271 18.40625l0 -18.40625l6.015625 0q3.0 0 4.5 1.25q1.515625 1.234375 1.515625 3.65625q0 1.28125 -0.734375 2.28125q-0.734375 0.984375 -2.0 1.53125q1.5 0.421875 2.359375 1.59375q0.875 1.171875 0.875 2.78125q0 2.484375 -1.609375 3.90625q-1.609375 1.40625 -4.546875 1.40625l-6.375 0zm2.421875 -8.609375l0 6.625l4.015625 0q1.6875 0 2.65625 -0.875q0.984375 -0.875 0.984375 -2.421875q0 -3.328125 -3.609375 -3.328125l-4.046875 0zm0 -1.953125l3.671875 0q1.59375 0 2.546875 -0.796875q0.953125 -0.796875 0.953125 -2.15625q0 -1.515625 -0.890625 -2.203125q-0.875 -0.6875 -2.6875 -0.6875l-3.59375 0l0 5.84375z" fill-rule="nonzero"/></g></svg>