<svg version="1.1" viewBox="0.0 0.0 960.0 540.0" fill="none" stroke="none" stroke-linecap="square" stroke-miterlimit="10" xmlns:xlink="http://www.w3.org/1999/xlink" xmlns="http://www.w3.org/2000/svg"><clipPath id="p.0"><path d="m0 0l960.0 0l0 540.0l-960.0 0l0 -540.0z" clip-rule="nonzero"/></clipPath><g clip-path="url(#p.0)"><path fill="#1b212c" d="m0 0l960.0 0l0 540.0l-960.0 0z" fill-rule="evenodd"/><path fill="#ffffff" fill-opacity="0.0303" d="m960.0 0.053017586l0 0l0 172.56693l-172.56696 -172.56693z" fill-rule="evenodd"/><path fill="#ffffff" fill-opacity="0.0303" d="m270.53595 539.096l-270.53543 -269.51443l0 -269.5144l541.0709 539.0289z" fill-rule="evenodd"/><path fill="#ffffff" fill-opacity="0.0303" d="m246.62866 538.00287l-246.62866 -245.72238l0 -172.35767l419.62204 418.08005z" fill-rule="evenodd"/><path fill="#0145ac" d="m120.897224 240.63107l-120.74016 -120.28981l0 -120.2898l241.48032 240.5796z" fill-rule="evenodd"/><path fill="#82c7a5" d="m310.01797 182.05634l-120.74017 -120.289795l-120.74015 0l241.48032 240.57959z" fill-rule="evenodd"/><path fill="#000000" fill-opacity="0.0" d="m371.35434 165.71129l526.7716 0l0 165.76378l-526.7716 0z" fill-rule="evenodd"/><path fill="#ffffff" d="m413.6512 210.65503q4.140625 0.890625 6.390625 3.5625q2.25 2.671875 2.25 6.875q0 5.40625 -4.0 8.3125q-3.984375 2.90625 -11.78125 2.90625l-19.3125 0l0 -42.0l18.109375 0q7.03125 0 10.890625 2.828125q3.875 2.8125 3.875 7.96875q0 3.484375 -1.71875 5.921875q-1.703125 2.421875 -4.703125 3.625zm-22.015625 -16.6875l0 15.25l13.375 0q5.109375 0 7.859375 -1.953125q2.765625 -1.953125 2.765625 -5.671875q0 -3.71875 -2.765625 -5.671875q-2.75 -1.953125 -7.859375 -1.953125l-13.375 0zm14.8125 34.6875q5.640625 0 8.515625 -1.921875q2.890625 -1.921875 2.890625 -6.0q0 -7.859375 -11.40625 -7.859375l-14.8125 0l0 15.78125l14.8125 0zm25.08371 -40.859375l4.265625 0l0 44.515625l-4.265625 0l0 -44.515625zm16.139984 12.953125l4.265625 0l0 31.5625l-4.265625 0l0 -31.5625zm2.15625 -6.890625q-1.3125 0 -2.21875 -0.90625q-0.90625 -0.90625 -0.90625 -2.15625q0 -1.203125 0.90625 -2.09375q0.90625 -0.90625 2.21875 -0.90625q1.3125 0 2.21875 0.875q0.90625 0.859375 0.90625 2.0625q0 1.3125 -0.90625 2.21875q-0.90625 0.90625 -2.21875 0.90625zm30.06186 6.65625q5.9375 0 9.453125 3.453125q3.515625 3.4375 3.515625 10.046875l0 18.296875l-4.265625 0l0 -17.875q0 -4.921875 -2.46875 -7.5q-2.453125 -2.578125 -7.015625 -2.578125q-5.09375 0 -8.0625 3.03125q-2.96875 3.015625 -2.96875 8.359375l0 16.5625l-4.265625 0l0 -31.5625l4.078125 0l0 5.828125q1.75 -2.890625 4.828125 -4.46875q3.09375 -1.59375 7.171875 -1.59375zm53.45868 -12.71875l0 44.515625l-4.078125 0l0 -6.234375q-1.921875 3.171875 -5.078125 4.859375q-3.140625 1.671875 -7.09375 1.671875q-4.4375 0 -8.0468445 -2.03125q-3.59375 -2.046875 -5.640625 -5.703125q-2.03125 -3.65625 -2.03125 -8.34375q0 -4.671875 2.03125 -8.328125q2.046875 -3.671875 5.640625 -5.671875q3.6093445 -2.015625 8.0468445 -2.015625q3.828125 0 6.921875 1.59375q3.09375 1.578125 5.078125 4.640625l0 -18.953125l4.25 0zm-15.890625 41.03125q3.296875 0 5.96875 -1.53125q2.671875 -1.53125 4.203125 -4.34375q1.53125 -2.828125 1.53125 -6.421875q0 -3.59375 -1.53125 -6.40625q-1.53125 -2.828125 -4.203125 -4.359375q-2.671875 -1.53125 -5.96875 -1.53125q-3.359375 0 -6.0312195 1.53125q-2.671875 1.53125 -4.203125 4.359375q-1.53125 2.8125 -1.53125 6.40625q0 3.59375 1.53125 6.421875q1.53125 2.8125 4.203125 4.34375q2.6718445 1.53125 6.0312195 1.53125zm88.00934 -38.515625l0 42.0l-4.25 0l0 -33.59375l-16.5 28.25l-2.109375 0l-16.5 -28.078125l0 33.421875l-4.25 0l0 -42.0l3.65625 0l18.234375 31.140625l18.0625 -31.140625l3.65625 0zm23.831177 10.203125q6.171875 0 9.46875 3.09375q3.3125 3.078125 3.3125 9.140625l0 19.5625l-4.078125 0l0 -4.921875q-1.453125 2.46875 -4.25 3.84375q-2.78125 1.375 -6.625 1.375q-5.265625 0 -8.390625 -2.515625q-3.125 -2.515625 -3.125 -6.65625q0 -4.03125 2.90625 -6.484375q2.921875 -2.453125 9.28125 -2.453125l10.015625 0l0 -1.921875q0 -4.078125 -2.28125 -6.203125q-2.28125 -2.140625 -6.65625 -2.140625q-3.0 0 -5.765625 1.0q-2.75 0.984375 -4.734375 2.71875l-1.921875 -3.1875q2.40625 -2.03125 5.765625 -3.140625q3.359375 -1.109375 7.078125 -1.109375zm-1.5 28.734375q3.59375 0 6.171875 -1.640625q2.578125 -1.65625 3.84375 -4.78125l0 -5.15625l-9.90625 0q-8.09375 0 -8.09375 5.640625q0 2.765625 2.09375 4.359375q2.109375 1.578125 5.890625 1.578125zm41.931213 -28.734375q5.9375 0 9.453125 3.453125q3.515625 3.4375 3.515625 10.046875l0 18.296875l-4.265625 0l0 -17.875q0 -4.921875 -2.46875 -7.5q-2.453125 -2.578125 -7.015625 -2.578125q-5.09375 0 -8.0625 3.03125q-2.96875 3.015625 -2.96875 8.359375l0 16.5625l-4.265625 0l0 -31.5625l4.078125 0l0 5.828125q1.75 -2.890625 4.828125 -4.46875q3.09375 -1.59375 7.171875 -1.59375zm24.546204 -13.015625q1.375 0 2.265625 0.9375q0.90625 0.921875 0.90625 2.296875q0 0.71875 -0.203125 1.53125q-0.203125 0.8125 -0.578125 1.890625l-2.578125 8.28125l-2.875 0l2.09375 -8.640625q-1.015625 -0.296875 -1.625 -1.109375q-0.59375 -0.8125 -0.59375 -1.953125q0 -1.4375 0.90625 -2.328125q0.90625 -0.90625 2.28125 -0.90625zm19.744385 45.109375q-3.84375 0 -7.359375 -1.109375q-3.5 -1.109375 -5.484375 -2.78125l1.921875 -3.359375q1.96875 1.546875 4.96875 2.546875q3.0 0.984375 6.25 0.984375q4.3125 0 6.375 -1.34375q2.078125 -1.359375 2.078125 -3.8125q0 -1.734375 -1.140625 -2.71875q-1.140625 -1.0 -2.875 -1.5q-1.734375 -0.515625 -4.625 -1.0q-3.828125 -0.71875 -6.171875 -1.46875q-2.34375 -0.75 -4.0 -2.546875q-1.640625 -1.8125 -1.640625 -4.984375q0 -3.96875 3.296875 -6.484375q3.296875 -2.515625 9.1875 -2.515625q3.046875 0 6.109375 0.8125q3.0625 0.796875 5.046875 2.125l-1.859375 3.421875q-3.90625 -2.703125 -9.296875 -2.703125q-4.09375 0 -6.171875 1.4375q-2.0625 1.4375 -2.0625 3.78125q0 1.796875 1.171875 2.890625q1.171875 1.078125 2.90625 1.59375q1.75 0.5 4.8125 1.03125q3.78125 0.71875 6.0625 1.453125q2.28125 0.71875 3.890625 2.453125q1.625 1.734375 1.625 4.796875q0 4.140625 -3.453125 6.578125q-3.453125 2.421875 -9.5625 2.421875zm63.95056 -21.953125q4.140625 0.890625 6.390625 3.5625q2.25 2.671875 2.25 6.875q0 5.40625 -4.0 8.3125q-3.984375 2.90625 -11.78125 2.90625l-19.3125 0l0 -42.0l18.109375 0q7.03125 0 10.890625 2.828125q3.875 2.8125 3.875 7.96875q0 3.484375 -1.71875 5.921875q-1.703125 2.421875 -4.703125 3.625zm-22.015625 -16.6875l0 15.25l13.375 0q5.109375 0 7.859375 -1.953125q2.765625 -1.953125 2.765625 -5.671875q0 -3.71875 -2.765625 -5.671875q-2.75 -1.953125 -7.859375 -1.953125l-13.375 0zm14.8125 34.6875q5.640625 0 8.515625 -1.921875q2.890625 -1.921875 2.890625 -6.0q0 -7.859375 -11.40625 -7.859375l-14.8125 0l0 15.78125l14.8125 0zm25.08374 -40.859375l4.265625 0l0 44.515625l-4.265625 0l0 -44.515625zm44.577454 12.953125l0 31.5625l-4.078125 0l0 -5.765625q-1.671875 2.890625 -4.625 4.484375q-2.9375 1.578125 -6.71875 1.578125q-6.171875 0 -9.75 -3.4375q-3.5625 -3.453125 -3.5625 -10.125l0 -18.296875l4.265625 0l0 17.875q0 4.984375 2.453125 7.5625q2.453125 2.578125 7.015625 2.578125q4.984375 0 7.859375 -3.015625q2.890625 -3.03125 2.890625 -8.4375l0 -16.5625l4.25 0zm22.379944 -9.65625q-2.75 0 -4.171875 1.5q-1.40625 1.5 -1.40625 4.4375l0 3.71875l9.71875 0l0 3.609375l-9.59375 0l0 27.953125l-4.265625 0l0 -27.953125l-5.640625 0l0 -3.609375l5.640625 0l0 -3.890625q0 -4.328125 2.484375 -6.84375q2.5 -2.515625 7.0625 -2.515625q1.796875 0 3.46875 0.515625q1.6875 0.5 2.828125 1.453125l-1.4375 3.1875q-1.859375 -1.5625 -4.6875 -1.5625zm20.339966 0q-2.75 0 -4.171875 1.5q-1.40625 1.5 -1.40625 4.4375l0 3.71875l9.71875 0l0 3.609375l-9.59375 0l0 27.953125l-4.265625 0l0 -27.953125l-5.640625 0l0 -3.609375l5.640625 0l0 -3.890625q0 -4.328125 2.484375 -6.84375q2.5 -2.515625 7.0625 -2.515625q1.796875 0 3.46875 0.515625q1.6875 0.5 2.828125 1.453125l-1.4375 3.1875q-1.859375 -1.5625 -4.6875 -1.5625z" fill-rule="nonzero"/><path fill="#000000" fill-opacity="0.0" d="m516.52234 394.72702l381.60626 0l0 110.141754l-381.60626 0z" fill-rule="evenodd"/><path fill="#ffffff" d="m538.72546 414.97516q0 1.5 -0.484375 2.734375q-0.46875 1.21875 -1.34375 2.109375q-0.859375 0.875 -2.078125 1.359375q-1.203125 0.46875 -2.671875 0.46875l-5.0 0l0 -13.375l5.0 0q1.46875 0 2.671875 0.484375q1.21875 0.484375 2.078125 1.375q0.875 0.875 1.34375 2.109375q0.484375 1.21875 0.484375 2.734375zm-1.84375 0q0 -1.234375 -0.34375 -2.203125q-0.328125 -0.96875 -0.953125 -1.640625q-0.609375 -0.671875 -1.484375 -1.03125q-0.875 -0.359375 -1.953125 -0.359375l-3.1875 0l0 10.4375l3.1875 0q1.078125 0 1.953125 -0.34375q0.875 -0.359375 1.484375 -1.015625q0.625 -0.671875 0.953125 -1.640625q0.34375 -0.984375 0.34375 -2.203125zm7.7981567 -2.921875q0.84375 0 1.5625 0.28125q0.71875 0.28125 1.234375 0.828125q0.53125 0.53125 0.8125 1.328125q0.296875 0.78125 0.296875 1.78125q0 0.390625 -0.078125 0.53125q-0.078125 0.125 -0.3125 0.125l-6.296875 0q0.015625 0.890625 0.234375 1.5625q0.234375 0.65625 0.625 1.109375q0.390625 0.4375 0.9375 0.65625q0.546875 0.21875 1.203125 0.21875q0.625 0 1.078125 -0.140625q0.453125 -0.15625 0.78125 -0.3125q0.328125 -0.171875 0.546875 -0.3125q0.21875 -0.15625 0.375 -0.15625q0.21875 0 0.328125 0.15625l0.46875 0.609375q-0.3125 0.375 -0.75 0.65625q-0.421875 0.265625 -0.921875 0.453125q-0.484375 0.171875 -1.015625 0.25q-0.515625 0.09375 -1.015625 0.09375q-0.984375 0 -1.8125 -0.328125q-0.828125 -0.328125 -1.4375 -0.96875q-0.59375 -0.640625 -0.9375 -1.578125q-0.328125 -0.9375 -0.328125 -2.171875q0 -0.984375 0.296875 -1.84375q0.3125 -0.859375 0.875 -1.484375q0.578125 -0.625 1.390625 -0.984375q0.828125 -0.359375 1.859375 -0.359375zm0.03125 1.21875q-1.203125 0 -1.890625 0.703125q-0.6875 0.6875 -0.859375 1.921875l5.140625 0q0 -0.578125 -0.171875 -1.0625q-0.15625 -0.484375 -0.46875 -0.828125q-0.296875 -0.359375 -0.75 -0.546875q-0.4375 -0.1875 -1.0 -0.1875zm4.564453 -1.078125l1.359375 0q0.1875 0 0.3125 0.109375q0.140625 0.09375 0.203125 0.234375l2.390625 6.09375q0.140625 0.328125 0.203125 0.671875q0.078125 0.328125 0.140625 0.65625q0.078125 -0.328125 0.15625 -0.65625q0.09375 -0.34375 0.21875 -0.671875l2.421875 -6.09375q0.0625 -0.140625 0.1875 -0.234375q0.125 -0.109375 0.3125 -0.109375l1.296875 0l-3.859375 9.453125l-1.5 0l-3.84375 -9.453125zm14.246826 -0.140625q0.84375 0 1.5625 0.28125q0.71875 0.28125 1.234375 0.828125q0.53125 0.53125 0.8125 1.328125q0.296875 0.78125 0.296875 1.78125q0 0.390625 -0.078125 0.53125q-0.078125 0.125 -0.3125 0.125l-6.296875 0q0.015625 0.890625 0.234375 1.5625q0.234375 0.65625 0.625 1.109375q0.390625 0.4375 0.9375 0.65625q0.546875 0.21875 1.203125 0.21875q0.625 0 1.078125 -0.140625q0.453125 -0.15625 0.78125 -0.3125q0.328125 -0.171875 0.546875 -0.3125q0.21875 -0.15625 0.375 -0.15625q0.21875 0 0.328125 0.15625l0.46875 0.609375q-0.3125 0.375 -0.75 0.65625q-0.421875 0.265625 -0.921875 0.453125q-0.484375 0.171875 -1.015625 0.25q-0.515625 0.09375 -1.015625 0.09375q-0.984375 0 -1.8125 -0.328125q-0.828125 -0.328125 -1.4375 -0.96875q-0.59375 -0.640625 -0.9375 -1.578125q-0.328125 -0.9375 -0.328125 -2.171875q0 -0.984375 0.296875 -1.84375q0.3125 -0.859375 0.875 -1.484375q0.578125 -0.625 1.390625 -0.984375q0.828125 -0.359375 1.859375 -0.359375zm0.03125 1.21875q-1.203125 0 -1.890625 0.703125q-0.6875 0.6875 -0.859375 1.921875l5.140625 0q0 -0.578125 -0.171875 -1.0625q-0.15625 -0.484375 -0.46875 -0.828125q-0.296875 -0.359375 -0.75 -0.546875q-0.4375 -0.1875 -1.0 -0.1875zm7.838379 -5.359375l0 13.734375l-1.65625 0l0 -13.734375l1.65625 0zm6.760376 4.140625q1.03125 0 1.859375 0.34375q0.84375 0.34375 1.421875 0.984375q0.59375 0.625 0.90625 1.53125q0.3125 0.890625 0.3125 2.0q0 1.125 -0.3125 2.03125q-0.3125 0.890625 -0.90625 1.53125q-0.578125 0.625 -1.421875 0.96875q-0.828125 0.328125 -1.859375 0.328125q-1.03125 0 -1.875 -0.328125q-0.828125 -0.34375 -1.421875 -0.96875q-0.578125 -0.640625 -0.90625 -1.53125q-0.3125 -0.90625 -0.3125 -2.03125q0 -1.109375 0.3125 -2.0q0.328125 -0.90625 0.90625 -1.53125q0.59375 -0.640625 1.421875 -0.984375q0.84375 -0.34375 1.875 -0.34375zm0 8.421875q1.390625 0 2.078125 -0.9375q0.703125 -0.9375 0.703125 -2.609375q0 -1.6875 -0.703125 -2.625q-0.6875 -0.953125 -2.078125 -0.953125q-0.703125 0 -1.234375 0.25q-0.515625 0.234375 -0.875 0.703125q-0.34375 0.453125 -0.515625 1.125q-0.171875 0.65625 -0.171875 1.5q0 0.84375 0.171875 1.5q0.171875 0.65625 0.515625 1.109375q0.359375 0.453125 0.875 0.703125q0.53125 0.234375 1.234375 0.234375zm6.544739 4.375l0 -12.65625l0.984375 0q0.359375 0 0.453125 0.34375l0.140625 1.125q0.609375 -0.734375 1.390625 -1.1875q0.78125 -0.453125 1.796875 -0.453125q0.8125 0 1.46875 0.3125q0.65625 0.3125 1.125 0.9375q0.46875 0.609375 0.71875 1.515625q0.25 0.90625 0.25 2.078125q0 1.046875 -0.28125 1.953125q-0.28125 0.890625 -0.796875 1.546875q-0.515625 0.65625 -1.28125 1.03125q-0.765625 0.375 -1.71875 0.375q-0.875 0 -1.5 -0.28125q-0.609375 -0.296875 -1.09375 -0.828125l0 4.1875l-1.65625 0zm4.203125 -11.484375q-0.8125 0 -1.421875 0.375q-0.609375 0.375 -1.125 1.0625l0 4.5625q0.46875 0.625 1.015625 0.875q0.546875 0.25 1.21875 0.25q1.3125 0 2.015625 -0.9375q0.703125 -0.953125 0.703125 -2.6875q0 -0.921875 -0.15625 -1.578125q-0.15625 -0.671875 -0.46875 -1.09375q-0.3125 -0.421875 -0.765625 -0.625q-0.4375 -0.203125 -1.015625 -0.203125zm9.845154 -1.3125q0.84375 0 1.5625 0.28125q0.71875 0.28125 1.234375 0.828125q0.53125 0.53125 0.8125 1.328125q0.296875 0.78125 0.296875 1.78125q0 0.390625 -0.078125 0.53125q-0.078125 0.125 -0.3125 0.125l-6.296875 0q0.015625 0.890625 0.234375 1.5625q0.234375 0.65625 0.625 1.109375q0.390625 0.4375 0.9375 0.65625q0.546875 0.21875 1.203125 0.21875q0.625 0 1.078125 -0.140625q0.453125 -0.15625 0.78125 -0.3125q0.328125 -0.171875 0.546875 -0.3125q0.21875 -0.15625 0.375 -0.15625q0.21875 0 0.328125 0.15625l0.46875 0.609375q-0.3125 0.375 -0.75 0.65625q-0.421875 0.265625 -0.921875 0.453125q-0.484375 0.171875 -1.015625 0.25q-0.515625 0.09375 -1.015625 0.09375q-0.984375 0 -1.8125 -0.328125q-0.828125 -0.328125 -1.4375 -0.96875q-0.59375 -0.640625 -0.9375 -1.578125q-0.328125 -0.9375 -0.328125 -2.171875q0 -0.984375 0.296875 -1.84375q0.3125 -0.859375 0.875 -1.484375q0.578125 -0.625 1.390625 -0.984375q0.828125 -0.359375 1.859375 -0.359375zm0.03125 1.21875q-1.203125 0 -1.890625 0.703125q-0.6875 0.6875 -0.859375 1.921875l5.140625 0q0 -0.578125 -0.171875 -1.0625q-0.15625 -0.484375 -0.46875 -0.828125q-0.296875 -0.359375 -0.75 -0.546875q-0.4375 -0.1875 -1.0 -0.1875zm5.994629 8.375l0 -9.453125l0.953125 0q0.265625 0 0.375 0.109375q0.109375 0.09375 0.140625 0.34375l0.109375 1.484375q0.484375 -0.984375 1.1875 -1.546875q0.71875 -0.5625 1.6875 -0.5625q0.390625 0 0.703125 0.09375q0.328125 0.09375 0.59375 0.25l-0.21875 1.234375q-0.0625 0.234375 -0.28125 0.234375q-0.140625 0 -0.40625 -0.078125q-0.265625 -0.09375 -0.75 -0.09375q-0.875 0 -1.453125 0.5q-0.578125 0.5 -0.984375 1.46875l0 6.015625l-1.65625 0zm12.924683 -7.890625q-0.109375 0.203125 -0.34375 0.203125q-0.140625 0 -0.3125 -0.09375q-0.171875 -0.109375 -0.4375 -0.234375q-0.25 -0.125 -0.609375 -0.234375q-0.359375 -0.109375 -0.84375 -0.109375q-0.40625 0 -0.75 0.109375q-0.328125 0.109375 -0.578125 0.296875q-0.234375 0.1875 -0.359375 0.4375q-0.125 0.234375 -0.125 0.53125q0 0.359375 0.203125 0.609375q0.21875 0.234375 0.5625 0.421875q0.34375 0.171875 0.78125 0.3125q0.4375 0.125 0.890625 0.28125q0.46875 0.15625 0.90625 0.34375q0.4375 0.1875 0.78125 0.46875q0.359375 0.28125 0.5625 0.6875q0.203125 0.40625 0.203125 0.96875q0 0.65625 -0.234375 1.21875q-0.21875 0.546875 -0.6875 0.953125q-0.453125 0.40625 -1.125 0.640625q-0.65625 0.234375 -1.515625 0.234375q-0.984375 0 -1.796875 -0.328125q-0.796875 -0.328125 -1.359375 -0.828125l0.390625 -0.625q0.078125 -0.125 0.171875 -0.1875q0.109375 -0.078125 0.28125 -0.078125q0.15625 0 0.34375 0.140625q0.1875 0.125 0.453125 0.28125q0.265625 0.15625 0.640625 0.296875q0.390625 0.125 0.953125 0.125q0.484375 0 0.84375 -0.125q0.375 -0.125 0.609375 -0.328125q0.25 -0.21875 0.359375 -0.5q0.125 -0.28125 0.125 -0.609375q0 -0.390625 -0.21875 -0.640625q-0.203125 -0.25 -0.546875 -0.4375q-0.34375 -0.1875 -0.796875 -0.3125q-0.4375 -0.140625 -0.90625 -0.28125q-0.453125 -0.15625 -0.90625 -0.34375q-0.4375 -0.203125 -0.78125 -0.484375q-0.34375 -0.296875 -0.5625 -0.71875q-0.203125 -0.421875 -0.203125 -1.03125q0 -0.53125 0.21875 -1.03125q0.234375 -0.5 0.65625 -0.875q0.4375 -0.390625 1.0625 -0.609375q0.625 -0.21875 1.421875 -0.21875q0.9375 0 1.671875 0.296875q0.75 0.28125 1.28125 0.796875l-0.375 0.609375zm2.5187378 6.859375q0 -0.234375 0.09375 -0.453125q0.09375 -0.21875 0.234375 -0.375q0.15625 -0.15625 0.375 -0.25q0.21875 -0.09375 0.453125 -0.09375q0.25 0 0.453125 0.09375q0.21875 0.09375 0.375 0.25q0.171875 0.15625 0.25 0.375q0.09375 0.21875 0.09375 0.453125q0 0.25 -0.09375 0.46875q-0.078125 0.203125 -0.25 0.375q-0.15625 0.15625 -0.375 0.234375q-0.203125 0.09375 -0.453125 0.09375q-0.234375 0 -0.453125 -0.09375q-0.21875 -0.078125 -0.375 -0.234375q-0.140625 -0.171875 -0.234375 -0.375q-0.09375 -0.21875 -0.09375 -0.46875zm0 -6.984375q0 -0.25 0.09375 -0.453125q0.09375 -0.21875 0.234375 -0.375q0.15625 -0.171875 0.375 -0.265625q0.21875 -0.09375 0.453125 -0.09375q0.25 0 0.453125 0.09375q0.21875 0.09375 0.375 0.265625q0.171875 0.15625 0.25 0.375q0.09375 0.203125 0.09375 0.453125q0 0.25 -0.09375 0.46875q-0.078125 0.203125 -0.25 0.359375q-0.15625 0.15625 -0.375 0.25q-0.203125 0.078125 -0.453125 0.078125q-0.234375 0 -0.453125 -0.078125q-0.21875 -0.09375 -0.375 -0.25q-0.140625 -0.15625 -0.234375 -0.359375q-0.09375 -0.21875 -0.09375 -0.46875z" fill-rule="nonzero"/><path fill="#ffffff" d="m533.72546 438.8189q0.125 0.21875 0.21875 0.46875q0.109375 0.25 0.203125 0.5q0.09375 -0.265625 0.1875 -0.5q0.109375 -0.234375 0.234375 -0.484375l4.53125 -8.21875q0.109375 -0.21875 0.234375 -0.265625q0.140625 -0.046875 0.390625 -0.046875l1.328125 0l0 13.375l-1.578125 0l0 -9.828125q0 -0.1875 0 -0.40625q0.015625 -0.234375 0.03125 -0.46875l-4.578125 8.359375q-0.234375 0.421875 -0.65625 0.421875l-0.265625 0q-0.421875 0 -0.65625 -0.421875l-4.671875 -8.390625q0.03125 0.25 0.03125 0.484375q0.015625 0.234375 0.015625 0.421875l0 9.828125l-1.578125 0l0 -13.375l1.328125 0q0.25 0 0.375 0.046875q0.125 0.046875 0.25 0.265625l4.625 8.234375l0 0zm17.257507 4.828125l-0.734375 0q-0.234375 0 -0.390625 -0.078125q-0.140625 -0.078125 -0.1875 -0.3125l-0.1875 -0.875q-0.375 0.328125 -0.734375 0.59375q-0.359375 0.265625 -0.75 0.453125q-0.390625 0.1875 -0.828125 0.28125q-0.4375 0.09375 -0.984375 0.09375q-0.546875 0 -1.03125 -0.15625q-0.484375 -0.15625 -0.84375 -0.46875q-0.34375 -0.3125 -0.5625 -0.78125q-0.203125 -0.46875 -0.203125 -1.109375q0 -0.5625 0.296875 -1.078125q0.3125 -0.515625 1.0 -0.90625q0.6875 -0.40625 1.796875 -0.65625q1.109375 -0.265625 2.71875 -0.3125l0 -0.734375q0 -1.09375 -0.46875 -1.65625q-0.46875 -0.578125 -1.40625 -0.578125q-0.59375 0 -1.015625 0.15625q-0.40625 0.15625 -0.71875 0.359375q-0.296875 0.1875 -0.515625 0.34375q-0.21875 0.140625 -0.4375 0.140625q-0.171875 0 -0.296875 -0.078125q-0.125 -0.09375 -0.203125 -0.21875l-0.296875 -0.53125q0.78125 -0.765625 1.6875 -1.140625q0.90625 -0.375 2.015625 -0.375q0.78125 0 1.390625 0.265625q0.625 0.265625 1.046875 0.734375q0.421875 0.46875 0.625 1.125q0.21875 0.65625 0.21875 1.453125l0 6.046875zm-4.296875 -1.015625q0.4375 0 0.796875 -0.078125q0.359375 -0.09375 0.671875 -0.25q0.328125 -0.171875 0.625 -0.40625q0.296875 -0.234375 0.578125 -0.53125l0 -1.96875q-1.15625 0.03125 -1.953125 0.1875q-0.796875 0.140625 -1.3125 0.375q-0.5 0.234375 -0.734375 0.546875q-0.21875 0.3125 -0.21875 0.703125q0 0.375 0.125 0.65625q0.125 0.265625 0.328125 0.4375q0.203125 0.171875 0.484375 0.25q0.28125 0.078125 0.609375 0.078125zm6.818054 1.015625l0 -9.453125l0.984375 0q0.359375 0 0.453125 0.34375l0.125 1.03125q0.625 -0.6875 1.375 -1.09375q0.765625 -0.421875 1.765625 -0.421875q0.78125 0 1.359375 0.265625q0.59375 0.25 0.984375 0.71875q0.40625 0.46875 0.609375 1.140625q0.203125 0.65625 0.203125 1.453125l0 6.015625l-1.65625 0l0 -6.015625q0 -1.078125 -0.5 -1.671875q-0.484375 -0.59375 -1.484375 -0.59375q-0.734375 0 -1.375 0.359375q-0.640625 0.359375 -1.1875 0.96875l0 6.953125l-1.65625 0zm10.372925 0l0 -9.453125l0.984375 0q0.359375 0 0.453125 0.34375l0.125 0.96875q0.515625 -0.640625 1.15625 -1.046875q0.65625 -0.40625 1.515625 -0.40625q0.96875 0 1.5625 0.53125q0.59375 0.53125 0.84375 1.4375q0.203125 -0.515625 0.515625 -0.890625q0.328125 -0.375 0.71875 -0.609375q0.40625 -0.25 0.859375 -0.359375q0.453125 -0.109375 0.921875 -0.109375q0.75 0 1.328125 0.234375q0.578125 0.234375 0.984375 0.703125q0.40625 0.453125 0.625 1.125q0.21875 0.65625 0.21875 1.515625l0 6.015625l-1.65625 0l0 -6.015625q0 -1.109375 -0.5 -1.6875q-0.484375 -0.578125 -1.40625 -0.578125q-0.40625 0 -0.78125 0.15625q-0.359375 0.140625 -0.640625 0.421875q-0.28125 0.28125 -0.453125 0.703125q-0.15625 0.421875 -0.15625 0.984375l0 6.015625l-1.65625 0l0 -6.015625q0 -1.140625 -0.46875 -1.703125q-0.453125 -0.5625 -1.328125 -0.5625q-0.609375 0 -1.140625 0.34375q-0.53125 0.328125 -0.96875 0.890625l0 7.046875l-1.65625 0zm19.066772 -9.59375q0.84375 0 1.5625 0.28125q0.71875 0.28125 1.234375 0.828125q0.53125 0.53125 0.8125 1.328125q0.296875 0.78125 0.296875 1.78125q0 0.390625 -0.078125 0.53125q-0.078125 0.125 -0.3125 0.125l-6.296875 0q0.015625 0.890625 0.234375 1.5625q0.234375 0.65625 0.625 1.109375q0.390625 0.4375 0.9375 0.65625q0.546875 0.21875 1.203125 0.21875q0.625 0 1.078125 -0.140625q0.453125 -0.15625 0.78125 -0.3125q0.328125 -0.171875 0.546875 -0.3125q0.21875 -0.15625 0.375 -0.15625q0.21875 0 0.328125 0.15625l0.46875 0.609375q-0.3125 0.375 -0.75 0.65625q-0.421875 0.265625 -0.921875 0.453125q-0.484375 0.171875 -1.015625 0.25q-0.515625 0.09375 -1.015625 0.09375q-0.984375 0 -1.8125 -0.328125q-0.828125 -0.328125 -1.4375 -0.96875q-0.59375 -0.640625 -0.9375 -1.578125q-0.328125 -0.9375 -0.328125 -2.171875q0 -0.984375 0.296875 -1.84375q0.3125 -0.859375 0.875 -1.484375q0.578125 -0.625 1.390625 -0.984375q0.828125 -0.359375 1.859375 -0.359375zm0.03125 1.21875q-1.203125 0 -1.890625 0.703125q-0.6875 0.6875 -0.859375 1.921875l5.140625 0q0 -0.578125 -0.171875 -1.0625q-0.15625 -0.484375 -0.46875 -0.828125q-0.296875 -0.359375 -0.75 -0.546875q-0.4375 -0.1875 -1.0 -0.1875zm9.744629 -1.21875q0.84375 0 1.5625 0.28125q0.71875 0.28125 1.234375 0.828125q0.53125 0.53125 0.8125 1.328125q0.296875 0.78125 0.296875 1.78125q0 0.390625 -0.078125 0.53125q-0.078125 0.125 -0.3125 0.125l-6.296875 0q0.015625 0.890625 0.234375 1.5625q0.234375 0.65625 0.625 1.109375q0.390625 0.4375 0.9375 0.65625q0.546875 0.21875 1.203125 0.21875q0.625 0 1.078125 -0.140625q0.453125 -0.15625 0.78125 -0.3125q0.328125 -0.171875 0.546875 -0.3125q0.21875 -0.15625 0.375 -0.15625q0.21875 0 0.328125 0.15625l0.46875 0.609375q-0.3125 0.375 -0.75 0.65625q-0.421875 0.265625 -0.921875 0.453125q-0.484375 0.171875 -1.015625 0.25q-0.515625 0.09375 -1.015625 0.09375q-0.984375 0 -1.8125 -0.328125q-0.828125 -0.328125 -1.4375 -0.96875q-0.59375 -0.640625 -0.9375 -1.578125q-0.328125 -0.9375 -0.328125 -2.171875q0 -0.984375 0.296875 -1.84375q0.3125 -0.859375 0.875 -1.484375q0.578125 -0.625 1.390625 -0.984375q0.828125 -0.359375 1.859375 -0.359375zm0.03125 1.21875q-1.203125 0 -1.890625 0.703125q-0.6875 0.6875 -0.859375 1.921875l5.140625 0q0 -0.578125 -0.171875 -1.0625q-0.15625 -0.484375 -0.46875 -0.828125q-0.296875 -0.359375 -0.75 -0.546875q-0.4375 -0.1875 -1.0 -0.1875zm8.854004 8.53125q-1.109375 0 -1.71875 -0.625q-0.59375 -0.625 -0.59375 -1.8125l0 -5.78125l-1.140625 0q-0.15625 0 -0.265625 -0.078125q-0.09375 -0.09375 -0.09375 -0.28125l0 -0.65625l1.546875 -0.203125l0.390625 -2.921875q0.015625 -0.140625 0.109375 -0.21875q0.109375 -0.09375 0.265625 -0.09375l0.84375 0l0 3.25l2.703125 0l0 1.203125l-2.703125 0l0 5.671875q0 0.59375 0.28125 0.890625q0.296875 0.28125 0.75 0.28125q0.265625 0 0.453125 -0.0625q0.203125 -0.078125 0.328125 -0.15625q0.140625 -0.078125 0.234375 -0.140625q0.109375 -0.078125 0.1875 -0.078125q0.125 0 0.234375 0.15625l0.484375 0.796875q-0.4375 0.390625 -1.046875 0.625q-0.59375 0.234375 -1.25 0.234375zm19.543823 -6.828125q0 1.5 -0.484375 2.734375q-0.46875 1.21875 -1.34375 2.109375q-0.859375 0.875 -2.078125 1.359375q-1.203125 0.46875 -2.671875 0.46875l-5.0 0l0 -13.375l5.0 0q1.46875 0 2.671875 0.484375q1.21875 0.484375 2.078125 1.375q0.875 0.875 1.34375 2.109375q0.484375 1.21875 0.484375 2.734375zm-1.84375 0q0 -1.234375 -0.34375 -2.203125q-0.328125 -0.96875 -0.953125 -1.640625q-0.609375 -0.671875 -1.484375 -1.03125q-0.875 -0.359375 -1.953125 -0.359375l-3.1875 0l0 10.4375l3.1875 0q1.078125 0 1.953125 -0.34375q0.875 -0.359375 1.484375 -1.015625q0.625 -0.671875 0.953125 -1.640625q0.34375 -0.984375 0.34375 -2.203125zm10.985657 6.671875l-0.734375 0q-0.234375 0 -0.390625 -0.078125q-0.140625 -0.078125 -0.1875 -0.3125l-0.1875 -0.875q-0.375 0.328125 -0.734375 0.59375q-0.359375 0.265625 -0.75 0.453125q-0.390625 0.1875 -0.828125 0.28125q-0.4375 0.09375 -0.984375 0.09375q-0.546875 0 -1.03125 -0.15625q-0.484375 -0.15625 -0.84375 -0.46875q-0.34375 -0.3125 -0.5625 -0.78125q-0.203125 -0.46875 -0.203125 -1.109375q0 -0.5625 0.296875 -1.078125q0.3125 -0.515625 1.0 -0.90625q0.6875 -0.40625 1.796875 -0.65625q1.109375 -0.265625 2.71875 -0.3125l0 -0.734375q0 -1.09375 -0.46875 -1.65625q-0.46875 -0.578125 -1.40625 -0.578125q-0.59375 0 -1.015625 0.15625q-0.40625 0.15625 -0.71875 0.359375q-0.296875 0.1875 -0.515625 0.34375q-0.21875 0.140625 -0.4375 0.140625q-0.171875 0 -0.296875 -0.078125q-0.125 -0.09375 -0.203125 -0.21875l-0.296875 -0.53125q0.78125 -0.765625 1.6875 -1.140625q0.90625 -0.375 2.015625 -0.375q0.78125 0 1.390625 0.265625q0.625 0.265625 1.046875 0.734375q0.421875 0.46875 0.625 1.125q0.21875 0.65625 0.21875 1.453125l0 6.046875zm-4.296875 -1.015625q0.4375 0 0.796875 -0.078125q0.359375 -0.09375 0.671875 -0.25q0.328125 -0.171875 0.625 -0.40625q0.296875 -0.234375 0.578125 -0.53125l0 -1.96875q-1.15625 0.03125 -1.953125 0.1875q-0.796875 0.140625 -1.3125 0.375q-0.5 0.234375 -0.734375 0.546875q-0.21875 0.3125 -0.21875 0.703125q0 0.375 0.125 0.65625q0.125 0.265625 0.328125 0.4375q0.203125 0.171875 0.484375 0.25q0.28125 0.078125 0.609375 0.078125zm6.818115 1.015625l0 -9.453125l0.984375 0q0.359375 0 0.453125 0.34375l0.125 1.03125q0.625 -0.6875 1.375 -1.09375q0.765625 -0.421875 1.765625 -0.421875q0.78125 0 1.359375 0.265625q0.59375 0.25 0.984375 0.71875q0.40625 0.46875 0.609375 1.140625q0.203125 0.65625 0.203125 1.453125l0 6.015625l-1.65625 0l0 -6.015625q0 -1.078125 -0.5 -1.671875q-0.484375 -0.59375 -1.484375 -0.59375q-0.734375 0 -1.375 0.359375q-0.640625 0.359375 -1.1875 0.96875l0 6.953125l-1.65625 0zm13.560364 -9.609375q0.609375 0 1.140625 0.140625q0.546875 0.125 0.984375 0.390625l2.5625 0l0 0.625q0 0.296875 -0.390625 0.390625l-1.078125 0.140625q0.328125 0.609375 0.328125 1.359375q0 0.6875 -0.265625 1.25q-0.265625 0.5625 -0.75 0.96875q-0.46875 0.390625 -1.125 0.609375q-0.640625 0.21875 -1.40625 0.21875q-0.671875 0 -1.25 -0.15625q-0.296875 0.1875 -0.453125 0.40625q-0.15625 0.203125 -0.15625 0.40625q0 0.34375 0.265625 0.515625q0.28125 0.171875 0.71875 0.25q0.453125 0.0625 1.015625 0.09375q0.578125 0.015625 1.171875 0.0625q0.59375 0.03125 1.15625 0.140625q0.5625 0.09375 1.015625 0.328125q0.453125 0.234375 0.71875 0.65625q0.265625 0.40625 0.265625 1.0625q0 0.59375 -0.3125 1.15625q-0.296875 0.578125 -0.859375 1.015625q-0.5625 0.453125 -1.390625 0.71875q-0.8125 0.265625 -1.859375 0.265625q-1.03125 0 -1.8125 -0.203125q-0.78125 -0.203125 -1.296875 -0.5625q-0.5 -0.34375 -0.765625 -0.796875q-0.25 -0.4375 -0.25 -0.9375q0 -0.703125 0.4375 -1.1875q0.453125 -0.5 1.21875 -0.78125q-0.40625 -0.1875 -0.640625 -0.5q-0.234375 -0.3125 -0.234375 -0.828125q0 -0.21875 0.078125 -0.4375q0.078125 -0.21875 0.21875 -0.421875q0.15625 -0.21875 0.375 -0.40625q0.234375 -0.203125 0.53125 -0.359375q-0.703125 -0.390625 -1.109375 -1.03125q-0.390625 -0.65625 -0.390625 -1.515625q0 -0.6875 0.265625 -1.25q0.28125 -0.578125 0.75 -0.96875q0.46875 -0.390625 1.125 -0.609375q0.671875 -0.21875 1.453125 -0.21875zm2.9375 10.125q0 -0.359375 -0.203125 -0.5625q-0.1875 -0.21875 -0.53125 -0.328125q-0.328125 -0.125 -0.765625 -0.171875q-0.4375 -0.0625 -0.921875 -0.078125q-0.484375 -0.03125 -0.984375 -0.0625q-0.5 -0.03125 -0.96875 -0.109375q-0.53125 0.25 -0.859375 0.625q-0.328125 0.359375 -0.328125 0.859375q0 0.3125 0.15625 0.59375q0.171875 0.28125 0.5 0.46875q0.34375 0.203125 0.84375 0.3125q0.515625 0.125 1.203125 0.125q0.671875 0 1.203125 -0.125q0.53125 -0.109375 0.890625 -0.34375q0.375 -0.21875 0.5625 -0.53125q0.203125 -0.296875 0.203125 -0.671875zm-2.9375 -5.140625q0.5 0 0.890625 -0.125q0.390625 -0.140625 0.640625 -0.390625q0.265625 -0.265625 0.390625 -0.609375q0.140625 -0.34375 0.140625 -0.765625q0 -0.875 -0.53125 -1.375q-0.53125 -0.515625 -1.53125 -0.515625q-1.0 0 -1.53125 0.515625q-0.53125 0.5 -0.53125 1.375q0 0.421875 0.140625 0.765625q0.140625 0.34375 0.390625 0.609375q0.265625 0.25 0.640625 0.390625q0.390625 0.125 0.890625 0.125zm5.86145 3.484375q0 -0.21875 0.078125 -0.40625q0.078125 -0.203125 0.21875 -0.34375q0.15625 -0.140625 0.359375 -0.21875q0.203125 -0.09375 0.453125 -0.09375q0.265625 0 0.484375 0.109375q0.234375 0.09375 0.375 0.28125q0.140625 0.1875 0.21875 0.421875q0.078125 0.234375 0.078125 0.515625q0 0.421875 -0.125 0.875q-0.125 0.453125 -0.359375 0.890625q-0.21875 0.4375 -0.546875 0.859375q-0.328125 0.421875 -0.75 0.78125l-0.28125 -0.28125q-0.125 -0.109375 -0.125 -0.25q0 -0.125 0.140625 -0.25q0.09375 -0.109375 0.234375 -0.28125q0.140625 -0.171875 0.28125 -0.40625q0.15625 -0.21875 0.28125 -0.484375q0.140625 -0.265625 0.1875 -0.578125l-0.125 0q-0.234375 0 -0.4375 -0.078125q-0.1875 -0.09375 -0.34375 -0.234375q-0.140625 -0.15625 -0.21875 -0.359375q-0.078125 -0.21875 -0.078125 -0.46875zm14.258911 -0.171875q0.546875 0 1.0 -0.046875q0.453125 -0.0625 0.84375 -0.15625q0.40625 -0.109375 0.765625 -0.25q0.359375 -0.140625 0.703125 -0.328125l0 -2.953125l-2.0625 0q-0.1875 0 -0.296875 -0.09375q-0.09375 -0.109375 -0.09375 -0.265625l0 -1.015625l4.09375 0l0 5.125q-0.5 0.359375 -1.046875 0.640625q-0.546875 0.265625 -1.171875 0.453125q-0.609375 0.171875 -1.328125 0.265625q-0.703125 0.09375 -1.53125 0.09375q-1.453125 0 -2.671875 -0.5q-1.203125 -0.5 -2.09375 -1.40625q-0.875 -0.90625 -1.359375 -2.15625q-0.484375 -1.265625 -0.484375 -2.765625q0 -1.53125 0.46875 -2.796875q0.484375 -1.265625 1.375 -2.15625q0.890625 -0.90625 2.15625 -1.390625q1.265625 -0.5 2.828125 -0.5q0.796875 0 1.46875 0.125q0.6875 0.109375 1.265625 0.328125q0.59375 0.21875 1.078125 0.53125q0.5 0.3125 0.9375 0.703125l-0.515625 0.828125q-0.15625 0.25 -0.40625 0.25q-0.15625 0 -0.328125 -0.109375q-0.234375 -0.125 -0.53125 -0.3125q-0.28125 -0.1875 -0.703125 -0.359375q-0.40625 -0.171875 -0.984375 -0.296875q-0.5625 -0.125 -1.328125 -0.125q-1.125 0 -2.046875 0.375q-0.90625 0.359375 -1.5625 1.046875q-0.640625 0.6875 -0.984375 1.671875q-0.34375 0.96875 -0.34375 2.1875q0 1.265625 0.359375 2.265625q0.359375 0.984375 1.0 1.671875q0.65625 0.6875 1.546875 1.0625q0.90625 0.359375 1.984375 0.359375zm14.412476 1.3125l-0.734375 0q-0.234375 0 -0.390625 -0.078125q-0.140625 -0.078125 -0.1875 -0.3125l-0.1875 -0.875q-0.375 0.328125 -0.734375 0.59375q-0.359375 0.265625 -0.75 0.453125q-0.390625 0.1875 -0.828125 0.28125q-0.4375 0.09375 -0.984375 0.09375q-0.546875 0 -1.03125 -0.15625q-0.484375 -0.15625 -0.84375 -0.46875q-0.34375 -0.3125 -0.5625 -0.78125q-0.203125 -0.46875 -0.203125 -1.109375q0 -0.5625 0.296875 -1.078125q0.3125 -0.515625 1.0 -0.90625q0.6875 -0.40625 1.796875 -0.65625q1.109375 -0.265625 2.71875 -0.3125l0 -0.734375q0 -1.09375 -0.46875 -1.65625q-0.46875 -0.578125 -1.40625 -0.578125q-0.59375 0 -1.015625 0.15625q-0.40625 0.15625 -0.71875 0.359375q-0.296875 0.1875 -0.515625 0.34375q-0.21875 0.140625 -0.4375 0.140625q-0.171875 0 -0.296875 -0.078125q-0.125 -0.09375 -0.203125 -0.21875l-0.296875 -0.53125q0.78125 -0.765625 1.6875 -1.140625q0.90625 -0.375 2.015625 -0.375q0.78125 0 1.390625 0.265625q0.625 0.265625 1.046875 0.734375q0.421875 0.46875 0.625 1.125q0.21875 0.65625 0.21875 1.453125l0 6.046875zm-4.296875 -1.015625q0.4375 0 0.796875 -0.078125q0.359375 -0.09375 0.671875 -0.25q0.328125 -0.171875 0.625 -0.40625q0.296875 -0.234375 0.578125 -0.53125l0 -1.96875q-1.15625 0.03125 -1.953125 0.1875q-0.796875 0.140625 -1.3125 0.375q-0.5 0.234375 -0.734375 0.546875q-0.21875 0.3125 -0.21875 0.703125q0 0.375 0.125 0.65625q0.125 0.265625 0.328125 0.4375q0.203125 0.171875 0.484375 0.25q0.28125 0.078125 0.609375 0.078125zm8.255554 -8.4375l0 6.03125q0 1.078125 0.484375 1.671875q0.5 0.578125 1.5 0.578125q0.734375 0 1.375 -0.34375q0.640625 -0.34375 1.1875 -0.96875l0 -6.96875l1.65625 0l0 9.453125l-0.984375 0q-0.359375 0 -0.453125 -0.34375l-0.125 -1.015625q-0.625 0.671875 -1.390625 1.09375q-0.765625 0.421875 -1.75 0.421875q-0.765625 0 -1.359375 -0.25q-0.59375 -0.265625 -1.0 -0.734375q-0.390625 -0.46875 -0.59375 -1.125q-0.203125 -0.671875 -0.203125 -1.46875l0 -6.03125l1.65625 0zm11.7948 9.609375q-1.109375 0 -1.71875 -0.625q-0.59375 -0.625 -0.59375 -1.8125l0 -5.78125l-1.140625 0q-0.15625 0 -0.265625 -0.078125q-0.09375 -0.09375 -0.09375 -0.28125l0 -0.65625l1.546875 -0.203125l0.390625 -2.921875q0.015625 -0.140625 0.109375 -0.21875q0.109375 -0.09375 0.265625 -0.09375l0.84375 0l0 3.25l2.703125 0l0 1.203125l-2.703125 0l0 5.671875q0 0.59375 0.28125 0.890625q0.296875 0.28125 0.75 0.28125q0.265625 0 0.453125 -0.0625q0.203125 -0.078125 0.328125 -0.15625q0.140625 -0.078125 0.234375 -0.140625q0.109375 -0.078125 0.1875 -0.078125q0.125 0 0.234375 0.15625l0.484375 0.796875q-0.4375 0.390625 -1.046875 0.625q-0.59375 0.234375 -1.25 0.234375zm11.036865 -0.15625l-0.734375 0q-0.234375 0 -0.390625 -0.078125q-0.140625 -0.078125 -0.1875 -0.3125l-0.1875 -0.875q-0.375 0.328125 -0.734375 0.59375q-0.359375 0.265625 -0.75 0.453125q-0.390625 0.1875 -0.828125 0.28125q-0.4375 0.09375 -0.984375 0.09375q-0.546875 0 -1.03125 -0.15625q-0.484375 -0.15625 -0.84375 -0.46875q-0.34375 -0.3125 -0.5625 -0.78125q-0.203125 -0.46875 -0.203125 -1.109375q0 -0.5625 0.296875 -1.078125q0.3125 -0.515625 1.0 -0.90625q0.6875 -0.40625 1.796875 -0.65625q1.109375 -0.265625 2.71875 -0.3125l0 -0.734375q0 -1.09375 -0.46875 -1.65625q-0.46875 -0.578125 -1.40625 -0.578125q-0.59375 0 -1.015625 0.15625q-0.40625 0.15625 -0.71875 0.359375q-0.296875 0.1875 -0.515625 0.34375q-0.21875 0.140625 -0.4375 0.140625q-0.171875 0 -0.296875 -0.078125q-0.125 -0.09375 -0.203125 -0.21875l-0.296875 -0.53125q0.78125 -0.765625 1.6875 -1.140625q0.90625 -0.375 2.015625 -0.375q0.78125 0 1.390625 0.265625q0.625 0.265625 1.046875 0.734375q0.421875 0.46875 0.625 1.125q0.21875 0.65625 0.21875 1.453125l0 6.046875zm-4.296875 -1.015625q0.4375 0 0.796875 -0.078125q0.359375 -0.09375 0.671875 -0.25q0.328125 -0.171875 0.625 -0.40625q0.296875 -0.234375 0.578125 -0.53125l0 -1.96875q-1.15625 0.03125 -1.953125 0.1875q-0.796875 0.140625 -1.3125 0.375q-0.5 0.234375 -0.734375 0.546875q-0.21875 0.3125 -0.21875 0.703125q0 0.375 0.125 0.65625q0.125 0.265625 0.328125 0.4375q0.203125 0.171875 0.484375 0.25q0.28125 0.078125 0.609375 0.078125zm6.818115 1.015625l0 -9.453125l0.984375 0q0.359375 0 0.453125 0.34375l0.125 0.96875q0.515625 -0.640625 1.15625 -1.046875q0.65625 -0.40625 1.515625 -0.40625q0.96875 0 1.5625 0.53125q0.59375 0.53125 0.84375 1.4375q0.203125 -0.515625 0.515625 -0.890625q0.328125 -0.375 0.71875 -0.609375q0.40625 -0.25 0.859375 -0.359375q0.453125 -0.109375 0.921875 -0.109375q0.75 0 1.328125 0.234375q0.578125 0.234375 0.984375 0.703125q0.40625 0.453125 0.625 1.125q0.21875 0.65625 0.21875 1.515625l0 6.015625l-1.65625 0l0 -6.015625q0 -1.109375 -0.5 -1.6875q-0.484375 -0.578125 -1.40625 -0.578125q-0.40625 0 -0.78125 0.15625q-0.359375 0.140625 -0.640625 0.421875q-0.28125 0.28125 -0.453125 0.703125q-0.15625 0.421875 -0.15625 0.984375l0 6.015625l-1.65625 0l0 -6.015625q0 -1.140625 -0.46875 -1.703125q-0.453125 -0.5625 -1.328125 -0.5625q-0.609375 0 -1.140625 0.34375q-0.53125 0.328125 -0.96875 0.890625l0 7.046875l-1.65625 0zm30.183105 0l-1.40625 0q-0.234375 0 -0.390625 -0.125q-0.140625 -0.125 -0.21875 -0.296875l-1.25 -3.234375l-6.0 0l-1.25 3.234375q-0.0625 0.15625 -0.234375 0.296875q-0.15625 0.125 -0.375 0.125l-1.40625 0l5.34375 -13.375l1.84375 0l5.34375 13.375zm-8.765625 -4.96875l5.0 0l-2.109375 -5.4375q-0.203125 -0.5 -0.390625 -1.25q-0.109375 0.375 -0.21875 0.703125q-0.09375 0.3125 -0.1875 0.5625l-2.09375 5.421875zm13.373718 -4.640625q0.609375 0 1.140625 0.140625q0.546875 0.125 0.984375 0.390625l2.5625 0l0 0.625q0 0.296875 -0.390625 0.390625l-1.078125 0.140625q0.328125 0.609375 0.328125 1.359375q0 0.6875 -0.265625 1.25q-0.265625 0.5625 -0.75 0.96875q-0.46875 0.390625 -1.125 0.609375q-0.640625 0.21875 -1.40625 0.21875q-0.671875 0 -1.25 -0.15625q-0.296875 0.1875 -0.453125 0.40625q-0.15625 0.203125 -0.15625 0.40625q0 0.34375 0.265625 0.515625q0.28125 0.171875 0.71875 0.25q0.453125 0.0625 1.015625 0.09375q0.578125 0.015625 1.171875 0.0625q0.59375 0.03125 1.15625 0.140625q0.5625 0.09375 1.015625 0.328125q0.453125 0.234375 0.71875 0.65625q0.265625 0.40625 0.265625 1.0625q0 0.59375 -0.3125 1.15625q-0.296875 0.578125 -0.859375 1.015625q-0.5625 0.453125 -1.390625 0.71875q-0.8125 0.265625 -1.859375 0.265625q-1.03125 0 -1.8125 -0.203125q-0.78125 -0.203125 -1.296875 -0.5625q-0.5 -0.34375 -0.765625 -0.796875q-0.25 -0.4375 -0.25 -0.9375q0 -0.703125 0.4375 -1.1875q0.453125 -0.5 1.21875 -0.78125q-0.40625 -0.1875 -0.640625 -0.5q-0.234375 -0.3125 -0.234375 -0.828125q0 -0.21875 0.078125 -0.4375q0.078125 -0.21875 0.21875 -0.421875q0.15625 -0.21875 0.375 -0.40625q0.234375 -0.203125 0.53125 -0.359375q-0.703125 -0.390625 -1.109375 -1.03125q-0.390625 -0.65625 -0.390625 -1.515625q0 -0.6875 0.265625 -1.25q0.28125 -0.578125 0.75 -0.96875q0.46875 -0.390625 1.125 -0.609375q0.671875 -0.21875 1.453125 -0.21875zm2.9375 10.125q0 -0.359375 -0.203125 -0.5625q-0.1875 -0.21875 -0.53125 -0.328125q-0.328125 -0.125 -0.765625 -0.171875q-0.4375 -0.0625 -0.921875 -0.078125q-0.484375 -0.03125 -0.984375 -0.0625q-0.5 -0.03125 -0.96875 -0.109375q-0.53125 0.25 -0.859375 0.625q-0.328125 0.359375 -0.328125 0.859375q0 0.3125 0.15625 0.59375q0.171875 0.28125 0.5 0.46875q0.34375 0.203125 0.84375 0.3125q0.515625 0.125 1.203125 0.125q0.671875 0 1.203125 -0.125q0.53125 -0.109375 0.890625 -0.34375q0.375 -0.21875 0.5625 -0.53125q0.203125 -0.296875 0.203125 -0.671875zm-2.9375 -5.140625q0.5 0 0.890625 -0.125q0.390625 -0.140625 0.640625 -0.390625q0.265625 -0.265625 0.390625 -0.609375q0.140625 -0.34375 0.140625 -0.765625q0 -0.875 -0.53125 -1.375q-0.53125 -0.515625 -1.53125 -0.515625q-1.0 0 -1.53125 0.515625q-0.53125 0.5 -0.53125 1.375q0 0.421875 0.140625 0.765625q0.140625 0.34375 0.390625 0.609375q0.265625 0.25 0.640625 0.390625q0.390625 0.125 0.890625 0.125zm13.283325 4.625l-0.734375 0q-0.234375 0 -0.390625 -0.078125q-0.140625 -0.078125 -0.1875 -0.3125l-0.1875 -0.875q-0.375 0.328125 -0.734375 0.59375q-0.359375 0.265625 -0.75 0.453125q-0.390625 0.1875 -0.828125 0.28125q-0.4375 0.09375 -0.984375 0.09375q-0.546875 0 -1.03125 -0.15625q-0.484375 -0.15625 -0.84375 -0.46875q-0.34375 -0.3125 -0.5625 -0.78125q-0.203125 -0.46875 -0.203125 -1.109375q0 -0.5625 0.296875 -1.078125q0.3125 -0.515625 1.0 -0.90625q0.6875 -0.40625 1.796875 -0.65625q1.109375 -0.265625 2.71875 -0.3125l0 -0.734375q0 -1.09375 -0.46875 -1.65625q-0.46875 -0.578125 -1.40625 -0.578125q-0.59375 0 -1.015625 0.15625q-0.40625 0.15625 -0.71875 0.359375q-0.296875 0.1875 -0.515625 0.34375q-0.21875 0.140625 -0.4375 0.140625q-0.171875 0 -0.296875 -0.078125q-0.125 -0.09375 -0.203125 -0.21875l-0.296875 -0.53125q0.78125 -0.765625 1.6875 -1.140625q0.90625 -0.375 2.015625 -0.375q0.78125 0 1.390625 0.265625q0.625 0.265625 1.046875 0.734375q0.421875 0.46875 0.625 1.125q0.21875 0.65625 0.21875 1.453125l0 6.046875zm-4.296875 -1.015625q0.4375 0 0.796875 -0.078125q0.359375 -0.09375 0.671875 -0.25q0.328125 -0.171875 0.625 -0.40625q0.296875 -0.234375 0.578125 -0.53125l0 -1.96875q-1.15625 0.03125 -1.953125 0.1875q-0.796875 0.140625 -1.3125 0.375q-0.5 0.234375 -0.734375 0.546875q-0.21875 0.3125 -0.21875 0.703125q0 0.375 0.125 0.65625q0.125 0.265625 0.328125 0.4375q0.203125 0.171875 0.484375 0.25q0.28125 0.078125 0.609375 0.078125zm6.818115 1.015625l0 -9.453125l0.953125 0q0.265625 0 0.375 0.109375q0.109375 0.09375 0.140625 0.34375l0.109375 1.484375q0.484375 -0.984375 1.1875 -1.546875q0.71875 -0.5625 1.6875 -0.5625q0.390625 0 0.703125 0.09375q0.328125 0.09375 0.59375 0.25l-0.21875 1.234375q-0.0625 0.234375 -0.28125 0.234375q-0.140625 0 -0.40625 -0.078125q-0.265625 -0.09375 -0.75 -0.09375q-0.875 0 -1.453125 0.5q-0.578125 0.5 -0.984375 1.46875l0 6.015625l-1.65625 0zm6.2841187 -9.453125l1.3125 0q0.203125 0 0.328125 0.109375q0.140625 0.09375 0.1875 0.234375l1.8125 6.09375q0.0625 0.328125 0.125 0.640625q0.078125 0.3125 0.125 0.625q0.0625 -0.3125 0.15625 -0.625q0.09375 -0.3125 0.203125 -0.640625l2.0 -6.125q0.046875 -0.140625 0.15625 -0.234375q0.125 -0.09375 0.296875 -0.09375l0.71875 0q0.1875 0 0.296875 0.09375q0.125 0.09375 0.171875 0.234375l1.953125 6.125q0.109375 0.3125 0.1875 0.640625q0.078125 0.3125 0.15625 0.625q0.046875 -0.3125 0.109375 -0.640625q0.078125 -0.34375 0.171875 -0.625l1.84375 -6.09375q0.046875 -0.140625 0.171875 -0.234375q0.140625 -0.109375 0.3125 -0.109375l1.25 0l-3.0625 9.453125l-1.3125 0q-0.25 0 -0.34375 -0.3125l-2.078125 -6.40625q-0.078125 -0.21875 -0.125 -0.4375q-0.046875 -0.21875 -0.09375 -0.4375q-0.046875 0.21875 -0.09375 0.4375q-0.046875 0.21875 -0.125 0.4375l-2.109375 6.40625q-0.109375 0.3125 -0.390625 0.3125l-1.25 0l-3.0625 -9.453125zm22.462585 9.453125l-0.734375 0q-0.234375 0 -0.390625 -0.078125q-0.140625 -0.078125 -0.1875 -0.3125l-0.1875 -0.875q-0.375 0.328125 -0.734375 0.59375q-0.359375 0.265625 -0.75 0.453125q-0.390625 0.1875 -0.828125 0.28125q-0.4375 0.09375 -0.984375 0.09375q-0.546875 0 -1.03125 -0.15625q-0.484375 -0.15625 -0.84375 -0.46875q-0.34375 -0.3125 -0.5625 -0.78125q-0.203125 -0.46875 -0.203125 -1.109375q0 -0.5625 0.296875 -1.078125q0.3125 -0.515625 1.0 -0.90625q0.6875 -0.40625 1.796875 -0.65625q1.109375 -0.265625 2.71875 -0.3125l0 -0.734375q0 -1.09375 -0.46875 -1.65625q-0.46875 -0.578125 -1.40625 -0.578125q-0.59375 0 -1.015625 0.15625q-0.40625 0.15625 -0.71875 0.359375q-0.296875 0.1875 -0.515625 0.34375q-0.21875 0.140625 -0.4375 0.140625q-0.171875 0 -0.296875 -0.078125q-0.125 -0.09375 -0.203125 -0.21875l-0.296875 -0.53125q0.78125 -0.765625 1.6875 -1.140625q0.90625 -0.375 2.015625 -0.375q0.78125 0 1.390625 0.265625q0.625 0.265625 1.046875 0.734375q0.421875 0.46875 0.625 1.125q0.21875 0.65625 0.21875 1.453125l0 6.046875zm-4.296875 -1.015625q0.4375 0 0.796875 -0.078125q0.359375 -0.09375 0.671875 -0.25q0.328125 -0.171875 0.625 -0.40625q0.296875 -0.234375 0.578125 -0.53125l0 -1.96875q-1.15625 0.03125 -1.953125 0.1875q-0.796875 0.140625 -1.3125 0.375q-0.5 0.234375 -0.734375 0.546875q-0.21875 0.3125 -0.21875 0.703125q0 0.375 0.125 0.65625q0.125 0.265625 0.328125 0.4375q0.203125 0.171875 0.484375 0.25q0.28125 0.078125 0.609375 0.078125zm8.661804 -12.71875l0 13.734375l-1.65625 0l0 -13.734375l1.65625 0zm2.447876 12.59375q0 -0.21875 0.078125 -0.40625q0.078125 -0.203125 0.21875 -0.34375q0.15625 -0.140625 0.359375 -0.21875q0.203125 -0.09375 0.453125 -0.09375q0.265625 0 0.484375 0.109375q0.234375 0.09375 0.375 0.28125q0.140625 0.1875 0.21875 0.421875q0.078125 0.234375 0.078125 0.515625q0 0.421875 -0.125 0.875q-0.125 0.453125 -0.359375 0.890625q-0.21875 0.4375 -0.546875 0.859375q-0.328125 0.421875 -0.75 0.78125l-0.28125 -0.28125q-0.125 -0.109375 -0.125 -0.25q0 -0.125 0.140625 -0.25q0.09375 -0.109375 0.234375 -0.28125q0.140625 -0.171875 0.28125 -0.40625q0.15625 -0.21875 0.28125 -0.484375q0.140625 -0.265625 0.1875 -0.578125l-0.125 0q-0.234375 0 -0.4375 -0.078125q-0.1875 -0.09375 -0.34375 -0.234375q-0.140625 -0.15625 -0.21875 -0.359375q-0.078125 -0.21875 -0.078125 -0.46875zm15.149536 -10.140625q-0.078125 0.140625 -0.171875 0.21875q-0.09375 0.0625 -0.25 0.0625q-0.15625 0 -0.375 -0.15625q-0.203125 -0.15625 -0.53125 -0.34375q-0.3125 -0.203125 -0.765625 -0.359375q-0.453125 -0.15625 -1.09375 -0.15625q-0.609375 0 -1.078125 0.171875q-0.46875 0.15625 -0.78125 0.4375q-0.3125 0.28125 -0.46875 0.65625q-0.15625 0.375 -0.15625 0.8125q0 0.5625 0.265625 0.9375q0.28125 0.359375 0.734375 0.625q0.453125 0.265625 1.03125 0.453125q0.578125 0.1875 1.171875 0.390625q0.609375 0.203125 1.171875 0.46875q0.578125 0.25 1.03125 0.640625q0.453125 0.390625 0.71875 0.96875q0.28125 0.5625 0.28125 1.390625q0 0.875 -0.296875 1.65625q-0.296875 0.765625 -0.875 1.34375q-0.5625 0.5625 -1.40625 0.890625q-0.828125 0.328125 -1.890625 0.328125q-1.296875 0 -2.375 -0.46875q-1.0625 -0.484375 -1.8125 -1.28125l0.515625 -0.859375q0.078125 -0.109375 0.1875 -0.171875q0.109375 -0.078125 0.234375 -0.078125q0.1875 0 0.4375 0.21875q0.265625 0.203125 0.640625 0.46875q0.375 0.25 0.90625 0.453125q0.546875 0.203125 1.3125 0.203125q0.640625 0 1.140625 -0.171875q0.515625 -0.171875 0.859375 -0.484375q0.359375 -0.328125 0.546875 -0.78125q0.1875 -0.453125 0.1875 -1.0q0 -0.609375 -0.28125 -0.984375q-0.28125 -0.390625 -0.734375 -0.65625q-0.4375 -0.265625 -1.015625 -0.4375q-0.5625 -0.1875 -1.171875 -0.375q-0.59375 -0.203125 -1.171875 -0.453125q-0.578125 -0.25 -1.03125 -0.640625q-0.4375 -0.40625 -0.71875 -1.0q-0.265625 -0.609375 -0.265625 -1.5q0 -0.703125 0.265625 -1.359375q0.28125 -0.671875 0.796875 -1.1875q0.53125 -0.515625 1.296875 -0.8125q0.765625 -0.3125 1.765625 -0.3125q1.125 0 2.046875 0.359375q0.921875 0.34375 1.609375 1.015625l-0.4375 0.859375zm2.7784424 11.28125l0 -13.734375l1.65625 0l0 5.546875q0.609375 -0.640625 1.34375 -1.015625q0.75 -0.390625 1.703125 -0.390625q0.78125 0 1.359375 0.265625q0.59375 0.25 0.984375 0.71875q0.40625 0.46875 0.609375 1.140625q0.203125 0.65625 0.203125 1.453125l0 6.015625l-1.65625 0l0 -6.015625q0 -1.078125 -0.5 -1.671875q-0.484375 -0.59375 -1.484375 -0.59375q-0.734375 0 -1.375 0.359375q-0.640625 0.359375 -1.1875 0.96875l0 6.953125l-1.65625 0zm10.372864 0l0 -9.453125l0.953125 0q0.265625 0 0.375 0.109375q0.109375 0.09375 0.140625 0.34375l0.109375 1.484375q0.484375 -0.984375 1.1875 -1.546875q0.71875 -0.5625 1.6875 -0.5625q0.390625 0 0.703125 0.09375q0.328125 0.09375 0.59375 0.25l-0.21875 1.234375q-0.0625 0.234375 -0.28125 0.234375q-0.140625 0 -0.40625 -0.078125q-0.265625 -0.09375 -0.75 -0.09375q-0.875 0 -1.453125 0.5q-0.578125 0.5 -0.984375 1.46875l0 6.015625l-1.65625 0zm11.268433 -9.59375q0.84375 0 1.5625 0.28125q0.71875 0.28125 1.234375 0.828125q0.53125 0.53125 0.8125 1.328125q0.296875 0.78125 0.296875 1.78125q0 0.390625 -0.078125 0.53125q-0.078125 0.125 -0.3125 0.125l-6.296875 0q0.015625 0.890625 0.234375 1.5625q0.234375 0.65625 0.625 1.109375q0.390625 0.4375 0.9375 0.65625q0.546875 0.21875 1.203125 0.21875q0.625 0 1.078125 -0.140625q0.453125 -0.15625 0.78125 -0.3125q0.328125 -0.171875 0.546875 -0.3125q0.21875 -0.15625 0.375 -0.15625q0.21875 0 0.328125 0.15625l0.46875 0.609375q-0.3125 0.375 -0.75 0.65625q-0.421875 0.265625 -0.921875 0.453125q-0.484375 0.171875 -1.015625 0.25q-0.515625 0.09375 -1.015625 0.09375q-0.984375 0 -1.8125 -0.328125q-0.828125 -0.328125 -1.4375 -0.96875q-0.59375 -0.640625 -0.9375 -1.578125q-0.328125 -0.9375 -0.328125 -2.171875q0 -0.984375 0.296875 -1.84375q0.3125 -0.859375 0.875 -1.484375q0.578125 -0.625 1.390625 -0.984375q0.828125 -0.359375 1.859375 -0.359375zm0.03125 1.21875q-1.203125 0 -1.890625 0.703125q-0.6875 0.6875 -0.859375 1.921875l5.140625 0q0 -0.578125 -0.171875 -1.0625q-0.15625 -0.484375 -0.46875 -0.828125q-0.296875 -0.359375 -0.75 -0.546875q-0.4375 -0.1875 -1.0 -0.1875zm8.517639 11.171875q-0.078125 0.171875 -0.203125 0.28125q-0.125 0.125 -0.390625 0.125l-1.234375 0l1.734375 -3.75l-3.90625 -8.90625l1.4375 0q0.21875 0 0.34375 0.109375q0.125 0.109375 0.171875 0.234375l2.53125 5.953125q0.078125 0.203125 0.140625 0.421875q0.0625 0.203125 0.109375 0.40625q0.0625 -0.203125 0.125 -0.40625q0.078125 -0.21875 0.15625 -0.421875l2.453125 -5.953125q0.0625 -0.140625 0.1875 -0.234375q0.140625 -0.109375 0.296875 -0.109375l1.328125 0l-5.28125 12.25zm13.723877 -2.796875l-0.734375 0q-0.234375 0 -0.390625 -0.078125q-0.140625 -0.078125 -0.1875 -0.3125l-0.1875 -0.875q-0.375 0.328125 -0.734375 0.59375q-0.359375 0.265625 -0.75 0.453125q-0.390625 0.1875 -0.828125 0.28125q-0.4375 0.09375 -0.984375 0.09375q-0.546875 0 -1.03125 -0.15625q-0.484375 -0.15625 -0.84375 -0.46875q-0.34375 -0.3125 -0.5625 -0.78125q-0.203125 -0.46875 -0.203125 -1.109375q0 -0.5625 0.296875 -1.078125q0.3125 -0.515625 1.0 -0.90625q0.6875 -0.40625 1.796875 -0.65625q1.109375 -0.265625 2.71875 -0.3125l0 -0.734375q0 -1.09375 -0.46875 -1.65625q-0.46875 -0.578125 -1.40625 -0.578125q-0.59375 0 -1.015625 0.15625q-0.40625 0.15625 -0.71875 0.359375q-0.296875 0.1875 -0.515625 0.34375q-0.21875 0.140625 -0.4375 0.140625q-0.171875 0 -0.296875 -0.078125q-0.125 -0.09375 -0.203125 -0.21875l-0.296875 -0.53125q0.78125 -0.765625 1.6875 -1.140625q0.90625 -0.375 2.015625 -0.375q0.78125 0 1.390625 0.265625q0.625 0.265625 1.046875 0.734375q0.421875 0.46875 0.625 1.125q0.21875 0.65625 0.21875 1.453125l0 6.046875zm-4.296875 -1.015625q0.4375 0 0.796875 -0.078125q0.359375 -0.09375 0.671875 -0.25q0.328125 -0.171875 0.625 -0.40625q0.296875 -0.234375 0.578125 -0.53125l0 -1.96875q-1.15625 0.03125 -1.953125 0.1875q-0.796875 0.140625 -1.3125 0.375q-0.5 0.234375 -0.734375 0.546875q-0.21875 0.3125 -0.21875 0.703125q0 0.375 0.125 0.65625q0.125 0.265625 0.328125 0.4375q0.203125 0.171875 0.484375 0.25q0.28125 0.078125 0.609375 0.078125zm6.818115 1.015625l0 -9.453125l0.984375 0q0.359375 0 0.453125 0.34375l0.125 1.03125q0.625 -0.6875 1.375 -1.09375q0.765625 -0.421875 1.765625 -0.421875q0.78125 0 1.359375 0.265625q0.59375 0.25 0.984375 0.71875q0.40625 0.46875 0.609375 1.140625q0.203125 0.65625 0.203125 1.453125l0 6.015625l-1.65625 0l0 -6.015625q0 -1.078125 -0.5 -1.671875q-0.484375 -0.59375 -1.484375 -0.59375q-0.734375 0 -1.375 0.359375q-0.640625 0.359375 -1.1875 0.96875l0 6.953125l-1.65625 0zm15.779114 -7.890625q-0.109375 0.203125 -0.34375 0.203125q-0.140625 0 -0.3125 -0.09375q-0.171875 -0.109375 -0.4375 -0.234375q-0.25 -0.125 -0.609375 -0.234375q-0.359375 -0.109375 -0.84375 -0.109375q-0.40625 0 -0.75 0.109375q-0.328125 0.109375 -0.578125 0.296875q-0.234375 0.1875 -0.359375 0.4375q-0.125 0.234375 -0.125 0.53125q0 0.359375 0.203125 0.609375q0.21875 0.234375 0.5625 0.421875q0.34375 0.171875 0.78125 0.3125q0.4375 0.125 0.890625 0.28125q0.46875 0.15625 0.90625 0.34375q0.4375 0.1875 0.78125 0.46875q0.359375 0.28125 0.5625 0.6875q0.203125 0.40625 0.203125 0.96875q0 0.65625 -0.234375 1.21875q-0.21875 0.546875 -0.6875 0.953125q-0.453125 0.40625 -1.125 0.640625q-0.65625 0.234375 -1.515625 0.234375q-0.984375 0 -1.796875 -0.328125q-0.796875 -0.328125 -1.359375 -0.828125l0.390625 -0.625q0.078125 -0.125 0.171875 -0.1875q0.109375 -0.078125 0.28125 -0.078125q0.15625 0 0.34375 0.140625q0.1875 0.125 0.453125 0.28125q0.265625 0.15625 0.640625 0.296875q0.390625 0.125 0.953125 0.125q0.484375 0 0.84375 -0.125q0.375 -0.125 0.609375 -0.328125q0.25 -0.21875 0.359375 -0.5q0.125 -0.28125 0.125 -0.609375q0 -0.390625 -0.21875 -0.640625q-0.203125 -0.25 -0.546875 -0.4375q-0.34375 -0.1875 -0.796875 -0.3125q-0.4375 -0.140625 -0.90625 -0.28125q-0.453125 -0.15625 -0.90625 -0.34375q-0.4375 -0.203125 -0.78125 -0.484375q-0.34375 -0.296875 -0.5625 -0.71875q-0.203125 -0.421875 -0.203125 -1.03125q0 -0.53125 0.21875 -1.03125q0.234375 -0.5 0.65625 -0.875q0.4375 -0.390625 1.0625 -0.609375q0.625 -0.21875 1.421875 -0.21875q0.9375 0 1.671875 0.296875q0.75 0.28125 1.28125 0.796875l-0.375 0.609375z" fill-rule="nonzero"/><path fill="#ffffff" d="m533.9911 454.36578q-0.078125 0.140625 -0.171875 0.21875q-0.09375 0.0625 -0.25 0.0625q-0.15625 0 -0.375 -0.15625q-0.203125 -0.15625 -0.53125 -0.34375q-0.3125 -0.203125 -0.765625 -0.359375q-0.453125 -0.15625 -1.09375 -0.15625q-0.609375 0 -1.078125 0.171875q-0.46875 0.15625 -0.78125 0.4375q-0.3125 0.28125 -0.46875 0.65625q-0.15625 0.375 -0.15625 0.8125q0 0.5625 0.265625 0.9375q0.28125 0.359375 0.734375 0.625q0.453125 0.265625 1.03125 0.453125q0.578125 0.1875 1.171875 0.390625q0.609375 0.203125 1.171875 0.46875q0.578125 0.25 1.03125 0.640625q0.453125 0.390625 0.71875 0.96875q0.28125 0.5625 0.28125 1.390625q0 0.875 -0.296875 1.65625q-0.296875 0.765625 -0.875 1.34375q-0.5625 0.5625 -1.40625 0.890625q-0.828125 0.328125 -1.890625 0.328125q-1.296875 0 -2.375 -0.46875q-1.0625 -0.484375 -1.8125 -1.28125l0.515625 -0.859375q0.078125 -0.109375 0.1875 -0.171875q0.109375 -0.078125 0.234375 -0.078125q0.1875 0 0.4375 0.21875q0.265625 0.203125 0.640625 0.46875q0.375 0.25 0.90625 0.453125q0.546875 0.203125 1.3125 0.203125q0.640625 0 1.140625 -0.171875q0.515625 -0.171875 0.859375 -0.484375q0.359375 -0.328125 0.546875 -0.78125q0.1875 -0.453125 0.1875 -1.0q0 -0.609375 -0.28125 -0.984375q-0.28125 -0.390625 -0.734375 -0.65625q-0.4375 -0.265625 -1.015625 -0.4375q-0.5625 -0.1875 -1.171875 -0.375q-0.59375 -0.203125 -1.171875 -0.453125q-0.578125 -0.25 -1.03125 -0.640625q-0.4375 -0.40625 -0.71875 -1.0q-0.265625 -0.609375 -0.265625 -1.5q0 -0.703125 0.265625 -1.359375q0.28125 -0.671875 0.796875 -1.1875q0.53125 -0.515625 1.296875 -0.8125q0.765625 -0.3125 1.765625 -0.3125q1.125 0 2.046875 0.359375q0.921875 0.34375 1.609375 1.015625l-0.4375 0.859375zm9.715942 11.28125l-0.734375 0q-0.234375 0 -0.390625 -0.078125q-0.140625 -0.078125 -0.1875 -0.3125l-0.1875 -0.875q-0.375 0.328125 -0.734375 0.59375q-0.359375 0.265625 -0.75 0.453125q-0.390625 0.1875 -0.828125 0.28125q-0.4375 0.09375 -0.984375 0.09375q-0.546875 0 -1.03125 -0.15625q-0.484375 -0.15625 -0.84375 -0.46875q-0.34375 -0.3125 -0.5625 -0.78125q-0.203125 -0.46875 -0.203125 -1.109375q0 -0.5625 0.296875 -1.078125q0.3125 -0.515625 1.0 -0.90625q0.6875 -0.40625 1.796875 -0.65625q1.109375 -0.265625 2.71875 -0.3125l0 -0.734375q0 -1.09375 -0.46875 -1.65625q-0.46875 -0.578125 -1.40625 -0.578125q-0.59375 0 -1.015625 0.15625q-0.40625 0.15625 -0.71875 0.359375q-0.296875 0.1875 -0.515625 0.34375q-0.21875 0.140625 -0.4375 0.140625q-0.171875 0 -0.296875 -0.078125q-0.125 -0.09375 -0.203125 -0.21875l-0.296875 -0.53125q0.78125 -0.765625 1.6875 -1.140625q0.90625 -0.375 2.015625 -0.375q0.78125 0 1.390625 0.265625q0.625 0.265625 1.046875 0.734375q0.421875 0.46875 0.625 1.125q0.21875 0.65625 0.21875 1.453125l0 6.046875zm-4.296875 -1.015625q0.4375 0 0.796875 -0.078125q0.359375 -0.09375 0.671875 -0.25q0.328125 -0.171875 0.625 -0.40625q0.296875 -0.234375 0.578125 -0.53125l0 -1.96875q-1.15625 0.03125 -1.953125 0.1875q-0.796875 0.140625 -1.3125 0.375q-0.5 0.234375 -0.734375 0.546875q-0.21875 0.3125 -0.21875 0.703125q0 0.375 0.125 0.65625q0.125 0.265625 0.328125 0.4375q0.203125 0.171875 0.484375 0.25q0.28125 0.078125 0.609375 0.078125zm6.818054 1.015625l0 -9.453125l0.953125 0q0.265625 0 0.375 0.109375q0.109375 0.09375 0.140625 0.34375l0.109375 1.484375q0.484375 -0.984375 1.1875 -1.546875q0.71875 -0.5625 1.6875 -0.5625q0.390625 0 0.703125 0.09375q0.328125 0.09375 0.59375 0.25l-0.21875 1.234375q-0.0625 0.234375 -0.28125 0.234375q-0.140625 0 -0.40625 -0.078125q-0.265625 -0.09375 -0.75 -0.09375q-0.875 0 -1.453125 0.5q-0.578125 0.5 -0.984375 1.46875l0 6.015625l-1.65625 0zm14.101318 0l-0.734375 0q-0.234375 0 -0.390625 -0.078125q-0.140625 -0.078125 -0.1875 -0.3125l-0.1875 -0.875q-0.375 0.328125 -0.734375 0.59375q-0.359375 0.265625 -0.75 0.453125q-0.390625 0.1875 -0.828125 0.28125q-0.4375 0.09375 -0.984375 0.09375q-0.546875 0 -1.03125 -0.15625q-0.484375 -0.15625 -0.84375 -0.46875q-0.34375 -0.3125 -0.5625 -0.78125q-0.203125 -0.46875 -0.203125 -1.109375q0 -0.5625 0.296875 -1.078125q0.3125 -0.515625 1.0 -0.90625q0.6875 -0.40625 1.796875 -0.65625q1.109375 -0.265625 2.71875 -0.3125l0 -0.734375q0 -1.09375 -0.46875 -1.65625q-0.46875 -0.578125 -1.40625 -0.578125q-0.59375 0 -1.015625 0.15625q-0.40625 0.15625 -0.71875 0.359375q-0.296875 0.1875 -0.515625 0.34375q-0.21875 0.140625 -0.4375 0.140625q-0.171875 0 -0.296875 -0.078125q-0.125 -0.09375 -0.203125 -0.21875l-0.296875 -0.53125q0.78125 -0.765625 1.6875 -1.140625q0.90625 -0.375 2.015625 -0.375q0.78125 0 1.390625 0.265625q0.625 0.265625 1.046875 0.734375q0.421875 0.46875 0.625 1.125q0.21875 0.65625 0.21875 1.453125l0 6.046875zm-4.296875 -1.015625q0.4375 0 0.796875 -0.078125q0.359375 -0.09375 0.671875 -0.25q0.328125 -0.171875 0.625 -0.40625q0.296875 -0.234375 0.578125 -0.53125l0 -1.96875q-1.15625 0.03125 -1.953125 0.1875q-0.796875 0.140625 -1.3125 0.375q-0.5 0.234375 -0.734375 0.546875q-0.21875 0.3125 -0.21875 0.703125q0 0.375 0.125 0.65625q0.125 0.265625 0.328125 0.4375q0.203125 0.171875 0.484375 0.25q0.28125 0.078125 0.609375 0.078125zm10.64624 -8.578125q1.03125 0 1.859375 0.34375q0.84375 0.34375 1.421875 0.984375q0.59375 0.625 0.90625 1.53125q0.3125 0.890625 0.3125 2.0q0 1.125 -0.3125 2.03125q-0.3125 0.890625 -0.90625 1.53125q-0.578125 0.625 -1.421875 0.96875q-0.828125 0.328125 -1.859375 0.328125q-1.03125 0 -1.875 -0.328125q-0.828125 -0.34375 -1.421875 -0.96875q-0.578125 -0.640625 -0.90625 -1.53125q-0.3125 -0.90625 -0.3125 -2.03125q0 -1.109375 0.3125 -2.0q0.328125 -0.90625 0.90625 -1.53125q0.59375 -0.640625 1.421875 -0.984375q0.84375 -0.34375 1.875 -0.34375zm0 8.421875q1.390625 0 2.078125 -0.9375q0.703125 -0.9375 0.703125 -2.609375q0 -1.6875 -0.703125 -2.625q-0.6875 -0.953125 -2.078125 -0.953125q-0.703125 0 -1.234375 0.25q-0.515625 0.234375 -0.875 0.703125q-0.34375 0.453125 -0.515625 1.125q-0.171875 0.65625 -0.171875 1.5q0 0.84375 0.171875 1.5q0.171875 0.65625 0.515625 1.109375q0.359375 0.453125 0.875 0.703125q0.53125 0.234375 1.234375 0.234375zm9.732239 -8.4375q0.609375 0 1.140625 0.140625q0.546875 0.125 0.984375 0.390625l2.5625 0l0 0.625q0 0.296875 -0.390625 0.390625l-1.078125 0.140625q0.328125 0.609375 0.328125 1.359375q0 0.6875 -0.265625 1.25q-0.265625 0.5625 -0.75 0.96875q-0.46875 0.390625 -1.125 0.609375q-0.640625 0.21875 -1.40625 0.21875q-0.671875 0 -1.25 -0.15625q-0.296875 0.1875 -0.453125 0.40625q-0.15625 0.203125 -0.15625 0.40625q0 0.34375 0.265625 0.515625q0.28125 0.171875 0.71875 0.25q0.453125 0.0625 1.015625 0.09375q0.578125 0.015625 1.171875 0.0625q0.59375 0.03125 1.15625 0.140625q0.5625 0.09375 1.015625 0.328125q0.453125 0.234375 0.71875 0.65625q0.265625 0.40625 0.265625 1.0625q0 0.59375 -0.3125 1.15625q-0.296875 0.578125 -0.859375 1.015625q-0.5625 0.453125 -1.390625 0.71875q-0.8125 0.265625 -1.859375 0.265625q-1.03125 0 -1.8125 -0.203125q-0.78125 -0.203125 -1.296875 -0.5625q-0.5 -0.34375 -0.765625 -0.796875q-0.25 -0.4375 -0.25 -0.9375q0 -0.703125 0.4375 -1.1875q0.453125 -0.5 1.21875 -0.78125q-0.40625 -0.1875 -0.640625 -0.5q-0.234375 -0.3125 -0.234375 -0.828125q0 -0.21875 0.078125 -0.4375q0.078125 -0.21875 0.21875 -0.421875q0.15625 -0.21875 0.375 -0.40625q0.234375 -0.203125 0.53125 -0.359375q-0.703125 -0.390625 -1.109375 -1.03125q-0.390625 -0.65625 -0.390625 -1.515625q0 -0.6875 0.265625 -1.25q0.28125 -0.578125 0.75 -0.96875q0.46875 -0.390625 1.125 -0.609375q0.671875 -0.21875 1.453125 -0.21875zm2.9375 10.125q0 -0.359375 -0.203125 -0.5625q-0.1875 -0.21875 -0.53125 -0.328125q-0.328125 -0.125 -0.765625 -0.171875q-0.4375 -0.0625 -0.921875 -0.078125q-0.484375 -0.03125 -0.984375 -0.0625q-0.5 -0.03125 -0.96875 -0.109375q-0.53125 0.25 -0.859375 0.625q-0.328125 0.359375 -0.328125 0.859375q0 0.3125 0.15625 0.59375q0.171875 0.28125 0.5 0.46875q0.34375 0.203125 0.84375 0.3125q0.515625 0.125 1.203125 0.125q0.671875 0 1.203125 -0.125q0.53125 -0.109375 0.890625 -0.34375q0.375 -0.21875 0.5625 -0.53125q0.203125 -0.296875 0.203125 -0.671875zm-2.9375 -5.140625q0.5 0 0.890625 -0.125q0.390625 -0.140625 0.640625 -0.390625q0.265625 -0.265625 0.390625 -0.609375q0.140625 -0.34375 0.140625 -0.765625q0 -0.875 -0.53125 -1.375q-0.53125 -0.515625 -1.53125 -0.515625q-1.0 0 -1.53125 0.515625q-0.53125 0.5 -0.53125 1.375q0 0.421875 0.140625 0.765625q0.140625 0.34375 0.390625 0.609375q0.265625 0.25 0.640625 0.390625q0.390625 0.125 0.890625 0.125zm8.189575 -4.828125l0 9.453125l-1.65625 0l0 -9.453125l1.65625 0zm0.375 -2.96875q0 0.25 -0.09375 0.46875q-0.09375 0.203125 -0.265625 0.375q-0.15625 0.15625 -0.375 0.25q-0.21875 0.09375 -0.453125 0.09375q-0.25 0 -0.46875 -0.09375q-0.203125 -0.09375 -0.359375 -0.25q-0.15625 -0.171875 -0.25 -0.375q-0.09375 -0.21875 -0.09375 -0.46875q0 -0.234375 0.09375 -0.453125q0.09375 -0.21875 0.25 -0.375q0.15625 -0.171875 0.359375 -0.265625q0.21875 -0.09375 0.46875 -0.09375q0.234375 0 0.453125 0.09375q0.21875 0.09375 0.375 0.265625q0.171875 0.15625 0.265625 0.375q0.09375 0.21875 0.09375 0.453125zm2.072876 11.28125q0 -0.21875 0.078125 -0.40625q0.078125 -0.203125 0.21875 -0.34375q0.15625 -0.140625 0.359375 -0.21875q0.203125 -0.09375 0.453125 -0.09375q0.265625 0 0.484375 0.109375q0.234375 0.09375 0.375 0.28125q0.140625 0.1875 0.21875 0.421875q0.078125 0.234375 0.078125 0.515625q0 0.421875 -0.125 0.875q-0.125 0.453125 -0.359375 0.890625q-0.21875 0.4375 -0.546875 0.859375q-0.328125 0.421875 -0.75 0.78125l-0.28125 -0.28125q-0.125 -0.109375 -0.125 -0.25q0 -0.125 0.140625 -0.25q0.09375 -0.109375 0.234375 -0.28125q0.140625 -0.171875 0.28125 -0.40625q0.15625 -0.21875 0.28125 -0.484375q0.140625 -0.265625 0.1875 -0.578125l-0.125 0q-0.234375 0 -0.4375 -0.078125q-0.1875 -0.09375 -0.34375 -0.234375q-0.140625 -0.15625 -0.21875 -0.359375q-0.078125 -0.21875 -0.078125 -0.46875zm19.305786 1.140625l-1.40625 0q-0.234375 0 -0.390625 -0.125q-0.140625 -0.125 -0.21875 -0.296875l-1.25 -3.234375l-6.0 0l-1.25 3.234375q-0.0625 0.15625 -0.234375 0.296875q-0.15625 0.125 -0.375 0.125l-1.40625 0l5.34375 -13.375l1.84375 0l5.34375 13.375zm-8.765625 -4.96875l5.0 0l-2.109375 -5.4375q-0.203125 -0.5 -0.390625 -1.25q-0.109375 0.375 -0.21875 0.703125q-0.09375 0.3125 -0.1875 0.5625l-2.09375 5.421875zm10.186279 4.96875l0 -9.453125l0.953125 0q0.265625 0 0.375 0.109375q0.109375 0.09375 0.140625 0.34375l0.109375 1.484375q0.484375 -0.984375 1.1875 -1.546875q0.71875 -0.5625 1.6875 -0.5625q0.390625 0 0.703125 0.09375q0.328125 0.09375 0.59375 0.25l-0.21875 1.234375q-0.0625 0.234375 -0.28125 0.234375q-0.140625 0 -0.40625 -0.078125q-0.265625 -0.09375 -0.75 -0.09375q-0.875 0 -1.453125 0.5q-0.578125 0.5 -0.984375 1.46875l0 6.015625l-1.65625 0zm10.284058 2.796875q-0.078125 0.171875 -0.203125 0.28125q-0.125 0.125 -0.390625 0.125l-1.234375 0l1.734375 -3.75l-3.90625 -8.90625l1.4375 0q0.21875 0 0.34375 0.109375q0.125 0.109375 0.171875 0.234375l2.53125 5.953125q0.078125 0.203125 0.140625 0.421875q0.0625 0.203125 0.109375 0.40625q0.0625 -0.203125 0.125 -0.40625q0.078125 -0.21875 0.15625 -0.421875l2.453125 -5.953125q0.0625 -0.140625 0.1875 -0.234375q0.140625 -0.109375 0.296875 -0.109375l1.328125 0l-5.28125 12.25zm13.723877 -2.796875l-0.734375 0q-0.234375 0 -0.390625 -0.078125q-0.140625 -0.078125 -0.1875 -0.3125l-0.1875 -0.875q-0.375 0.328125 -0.734375 0.59375q-0.359375 0.265625 -0.75 0.453125q-0.390625 0.1875 -0.828125 0.28125q-0.4375 0.09375 -0.984375 0.09375q-0.546875 0 -1.03125 -0.15625q-0.484375 -0.15625 -0.84375 -0.46875q-0.34375 -0.3125 -0.5625 -0.78125q-0.203125 -0.46875 -0.203125 -1.109375q0 -0.5625 0.296875 -1.078125q0.3125 -0.515625 1.0 -0.90625q0.6875 -0.40625 1.796875 -0.65625q1.109375 -0.265625 2.71875 -0.3125l0 -0.734375q0 -1.09375 -0.46875 -1.65625q-0.46875 -0.578125 -1.40625 -0.578125q-0.59375 0 -1.015625 0.15625q-0.40625 0.15625 -0.71875 0.359375q-0.296875 0.1875 -0.515625 0.34375q-0.21875 0.140625 -0.4375 0.140625q-0.171875 0 -0.296875 -0.078125q-0.125 -0.09375 -0.203125 -0.21875l-0.296875 -0.53125q0.78125 -0.765625 1.6875 -1.140625q0.90625 -0.375 2.015625 -0.375q0.78125 0 1.390625 0.265625q0.625 0.265625 1.046875 0.734375q0.421875 0.46875 0.625 1.125q0.21875 0.65625 0.21875 1.453125l0 6.046875zm-4.296875 -1.015625q0.4375 0 0.796875 -0.078125q0.359375 -0.09375 0.671875 -0.25q0.328125 -0.171875 0.625 -0.40625q0.296875 -0.234375 0.578125 -0.53125l0 -1.96875q-1.15625 0.03125 -1.953125 0.1875q-0.796875 0.140625 -1.3125 0.375q-0.5 0.234375 -0.734375 0.546875q-0.21875 0.3125 -0.21875 0.703125q0 0.375 0.125 0.65625q0.125 0.265625 0.328125 0.4375q0.203125 0.171875 0.484375 0.25q0.28125 0.078125 0.609375 0.078125zm6.818115 1.015625l0 -9.453125l0.984375 0q0.359375 0 0.453125 0.34375l0.125 1.03125q0.625 -0.6875 1.375 -1.09375q0.765625 -0.421875 1.765625 -0.421875q0.78125 0 1.359375 0.265625q0.59375 0.25 0.984375 0.71875q0.40625 0.46875 0.609375 1.140625q0.203125 0.65625 0.203125 1.453125l0 6.015625l-1.65625 0l0 -6.015625q0 -1.078125 -0.5 -1.671875q-0.484375 -0.59375 -1.484375 -0.59375q-0.734375 0 -1.375 0.359375q-0.640625 0.359375 -1.1875 0.96875l0 6.953125l-1.65625 0zm21.082947 -11.28125q-0.078125 0.140625 -0.171875 0.21875q-0.09375 0.0625 -0.25 0.0625q-0.15625 0 -0.375 -0.15625q-0.203125 -0.15625 -0.53125 -0.34375q-0.3125 -0.203125 -0.765625 -0.359375q-0.453125 -0.15625 -1.09375 -0.15625q-0.609375 0 -1.078125 0.171875q-0.46875 0.15625 -0.78125 0.4375q-0.3125 0.28125 -0.46875 0.65625q-0.15625 0.375 -0.15625 0.8125q0 0.5625 0.265625 0.9375q0.28125 0.359375 0.734375 0.625q0.453125 0.265625 1.03125 0.453125q0.578125 0.1875 1.171875 0.390625q0.609375 0.203125 1.171875 0.46875q0.578125 0.25 1.03125 0.640625q0.453125 0.390625 0.71875 0.96875q0.28125 0.5625 0.28125 1.390625q0 0.875 -0.296875 1.65625q-0.296875 0.765625 -0.875 1.34375q-0.5625 0.5625 -1.40625 0.890625q-0.828125 0.328125 -1.890625 0.328125q-1.296875 0 -2.375 -0.46875q-1.0625 -0.484375 -1.8125 -1.28125l0.515625 -0.859375q0.078125 -0.109375 0.1875 -0.171875q0.109375 -0.078125 0.234375 -0.078125q0.1875 0 0.4375 0.21875q0.265625 0.203125 0.640625 0.46875q0.375 0.25 0.90625 0.453125q0.546875 0.203125 1.3125 0.203125q0.640625 0 1.140625 -0.171875q0.515625 -0.171875 0.859375 -0.484375q0.359375 -0.328125 0.546875 -0.78125q0.1875 -0.453125 0.1875 -1.0q0 -0.609375 -0.28125 -0.984375q-0.28125 -0.390625 -0.734375 -0.65625q-0.4375 -0.265625 -1.015625 -0.4375q-0.5625 -0.1875 -1.171875 -0.375q-0.59375 -0.203125 -1.171875 -0.453125q-0.578125 -0.25 -1.03125 -0.640625q-0.4375 -0.40625 -0.71875 -1.0q-0.265625 -0.609375 -0.265625 -1.5q0 -0.703125 0.265625 -1.359375q0.28125 -0.671875 0.796875 -1.1875q0.53125 -0.515625 1.296875 -0.8125q0.765625 -0.3125 1.765625 -0.3125q1.125 0 2.046875 0.359375q0.921875 0.34375 1.609375 1.015625l-0.4375 0.859375zm2.7784424 11.28125l0 -13.734375l1.65625 0l0 5.546875q0.609375 -0.640625 1.34375 -1.015625q0.75 -0.390625 1.703125 -0.390625q0.78125 0 1.359375 0.265625q0.59375 0.25 0.984375 0.71875q0.40625 0.46875 0.609375 1.140625q0.203125 0.65625 0.203125 1.453125l0 6.015625l-1.65625 0l0 -6.015625q0 -1.078125 -0.5 -1.671875q-0.484375 -0.59375 -1.484375 -0.59375q-0.734375 0 -1.375 0.359375q-0.640625 0.359375 -1.1875 0.96875l0 6.953125l-1.65625 0zm17.310364 0l-0.734375 0q-0.234375 0 -0.390625 -0.078125q-0.140625 -0.078125 -0.1875 -0.3125l-0.1875 -0.875q-0.375 0.328125 -0.734375 0.59375q-0.359375 0.265625 -0.75 0.453125q-0.390625 0.1875 -0.828125 0.28125q-0.4375 0.09375 -0.984375 0.09375q-0.546875 0 -1.03125 -0.15625q-0.484375 -0.15625 -0.84375 -0.46875q-0.34375 -0.3125 -0.5625 -0.78125q-0.203125 -0.46875 -0.203125 -1.109375q0 -0.5625 0.296875 -1.078125q0.3125 -0.515625 1.0 -0.90625q0.6875 -0.40625 1.796875 -0.65625q1.109375 -0.265625 2.71875 -0.3125l0 -0.734375q0 -1.09375 -0.46875 -1.65625q-0.46875 -0.578125 -1.40625 -0.578125q-0.59375 0 -1.015625 0.15625q-0.40625 0.15625 -0.71875 0.359375q-0.296875 0.1875 -0.515625 0.34375q-0.21875 0.140625 -0.4375 0.140625q-0.171875 0 -0.296875 -0.078125q-0.125 -0.09375 -0.203125 -0.21875l-0.296875 -0.53125q0.78125 -0.765625 1.6875 -1.140625q0.90625 -0.375 2.015625 -0.375q0.78125 0 1.390625 0.265625q0.625 0.265625 1.046875 0.734375q0.421875 0.46875 0.625 1.125q0.21875 0.65625 0.21875 1.453125l0 6.046875zm-4.296875 -1.015625q0.4375 0 0.796875 -0.078125q0.359375 -0.09375 0.671875 -0.25q0.328125 -0.171875 0.625 -0.40625q0.296875 -0.234375 0.578125 -0.53125l0 -1.96875q-1.15625 0.03125 -1.953125 0.1875q-0.796875 0.140625 -1.3125 0.375q-0.5 0.234375 -0.734375 0.546875q-0.21875 0.3125 -0.21875 0.703125q0 0.375 0.125 0.65625q0.125 0.265625 0.328125 0.4375q0.203125 0.171875 0.484375 0.25q0.28125 0.078125 0.609375 0.078125zm6.818115 1.015625l0 -9.453125l0.953125 0q0.265625 0 0.375 0.109375q0.109375 0.09375 0.140625 0.34375l0.109375 1.484375q0.484375 -0.984375 1.1875 -1.546875q0.71875 -0.5625 1.6875 -0.5625q0.390625 0 0.703125 0.09375q0.328125 0.09375 0.59375 0.25l-0.21875 1.234375q-0.0625 0.234375 -0.28125 0.234375q-0.140625 0 -0.40625 -0.078125q-0.265625 -0.09375 -0.75 -0.09375q-0.875 0 -1.453125 0.5q-0.578125 0.5 -0.984375 1.46875l0 6.015625l-1.65625 0zm7.5184326 0l0 -9.453125l0.984375 0q0.359375 0 0.453125 0.34375l0.125 0.96875q0.515625 -0.640625 1.15625 -1.046875q0.65625 -0.40625 1.515625 -0.40625q0.96875 0 1.5625 0.53125q0.59375 0.53125 0.84375 1.4375q0.203125 -0.515625 0.515625 -0.890625q0.328125 -0.375 0.71875 -0.609375q0.40625 -0.25 0.859375 -0.359375q0.453125 -0.109375 0.921875 -0.109375q0.75 0 1.328125 0.234375q0.578125 0.234375 0.984375 0.703125q0.40625 0.453125 0.625 1.125q0.21875 0.65625 0.21875 1.515625l0 6.015625l-1.65625 0l0 -6.015625q0 -1.109375 -0.5 -1.6875q-0.484375 -0.578125 -1.40625 -0.578125q-0.40625 0 -0.78125 0.15625q-0.359375 0.140625 -0.640625 0.421875q-0.28125 0.28125 -0.453125 0.703125q-0.15625 0.421875 -0.15625 0.984375l0 6.015625l-1.65625 0l0 -6.015625q0 -1.140625 -0.46875 -1.703125q-0.453125 -0.5625 -1.328125 -0.5625q-0.609375 0 -1.140625 0.34375q-0.53125 0.328125 -0.96875 0.890625l0 7.046875l-1.65625 0zm22.254272 0l-0.734375 0q-0.234375 0 -0.390625 -0.078125q-0.140625 -0.078125 -0.1875 -0.3125l-0.1875 -0.875q-0.375 0.328125 -0.734375 0.59375q-0.359375 0.265625 -0.75 0.453125q-0.390625 0.1875 -0.828125 0.28125q-0.4375 0.09375 -0.984375 0.09375q-0.546875 0 -1.03125 -0.15625q-0.484375 -0.15625 -0.84375 -0.46875q-0.34375 -0.3125 -0.5625 -0.78125q-0.203125 -0.46875 -0.203125 -1.109375q0 -0.5625 0.296875 -1.078125q0.3125 -0.515625 1.0 -0.90625q0.6875 -0.40625 1.796875 -0.65625q1.109375 -0.265625 2.71875 -0.3125l0 -0.734375q0 -1.09375 -0.46875 -1.65625q-0.46875 -0.578125 -1.40625 -0.578125q-0.59375 0 -1.015625 0.15625q-0.40625 0.15625 -0.71875 0.359375q-0.296875 0.1875 -0.515625 0.34375q-0.21875 0.140625 -0.4375 0.140625q-0.171875 0 -0.296875 -0.078125q-0.125 -0.09375 -0.203125 -0.21875l-0.296875 -0.53125q0.78125 -0.765625 1.6875 -1.140625q0.90625 -0.375 2.015625 -0.375q0.78125 0 1.390625 0.265625q0.625 0.265625 1.046875 0.734375q0.421875 0.46875 0.625 1.125q0.21875 0.65625 0.21875 1.453125l0 6.046875zm-4.296875 -1.015625q0.4375 0 0.796875 -0.078125q0.359375 -0.09375 0.671875 -0.25q0.328125 -0.171875 0.625 -0.40625q0.296875 -0.234375 0.578125 -0.53125l0 -1.96875q-1.15625 0.03125 -1.953125 0.1875q-0.796875 0.140625 -1.3125 0.375q-0.5 0.234375 -0.734375 0.546875q-0.21875 0.3125 -0.21875 0.703125q0 0.375 0.125 0.65625q0.125 0.265625 0.328125 0.4375q0.203125 0.171875 0.484375 0.25q0.28125 0.078125 0.609375 0.078125z" fill-rule="nonzero"/></g></svg>